<?xml version="1.0" encoding="UTF-8" standalone="no"?>
<!-- Created with Inkscape (http://www.inkscape.org/) -->

<svg
   width="210mm"
   height="297mm"
   viewBox="0 0 210 297"
   version="1.1"
   id="svg1"
   sodipodi:docname="logo_sheet.svg"
   xml:space="preserve"
   inkscape:version="1.3 (0e150ed6c4, 2023-07-21)"
   xmlns:inkscape="http://www.inkscape.org/namespaces/inkscape"
   xmlns:sodipodi="http://sodipodi.sourceforge.net/DTD/sodipodi-0.dtd"
   xmlns:xlink="http://www.w3.org/1999/xlink"
   xmlns="http://www.w3.org/2000/svg"
   xmlns:svg="http://www.w3.org/2000/svg"><sodipodi:namedview
     id="namedview1"
     pagecolor="#ffffff"
     bordercolor="#000000"
     borderopacity="0.25"
     inkscape:showpageshadow="2"
     inkscape:pageopacity="0.0"
     inkscape:pagecheckerboard="0"
     inkscape:deskcolor="#d1d1d1"
     inkscape:document-units="mm"
     inkscape:zoom="0.73890573"
     inkscape:cx="222.62651"
     inkscape:cy="579.23492"
     inkscape:window-width="1887"
     inkscape:window-height="1102"
     inkscape:window-x="581"
     inkscape:window-y="365"
     inkscape:window-maximized="0"
     inkscape:current-layer="g71"
     showguides="false" /><defs
     id="defs1"><linearGradient
       id="linearGradient47"
       inkscape:collect="always"><stop
         style="stop-color:#978471;stop-opacity:1;"
         offset="0"
         id="stop48" /><stop
         style="stop-color:#483e37;stop-opacity:1;"
         offset="1"
         id="stop49" /></linearGradient><linearGradient
       id="swatch46"><stop
         style="stop-color:#483e37;stop-opacity:1;"
         offset="0"
         id="stop46" /><stop
         style="stop-color:#483e37;stop-opacity:1;"
         offset="1"
         id="stop47" /></linearGradient><clipPath
       clipPathUnits="userSpaceOnUse"
       id="clipPath54"><path
         id="path54"
         style="stroke-width:0.0999999;stroke-linecap:square;paint-order:markers fill stroke;stop-color:#000000"
         d="m 1691.1994,-792.32001 h 1634.8919 v 92.82806 H 1691.1994 Z" /></clipPath><clipPath
       clipPathUnits="userSpaceOnUse"
       id="clipPath55"><path
         id="path55"
         style="stroke-width:0.1;stroke-linecap:square;paint-order:markers fill stroke;stop-color:#000000"
         d="m 1736.6147,-745.57287 h 1589.4765 v 72.46715 H 1736.6147 Z" /></clipPath><clipPath
       clipPathUnits="userSpaceOnUse"
       id="clipPath25"><rect
         style="fill:#ff0000;stroke:none;stroke-width:3;stroke-linecap:square;stroke-linejoin:miter;paint-order:stroke markers fill;stop-color:#000000"
         id="rect25-8"
         width="78"
         height="45.033199"
         x="763.61322"
         y="452.82422" /></clipPath><inkscape:path-effect
       effect="bend_path"
       id="path-effect3"
       is_visible="true"
       lpeversion="1"
       bendpath="m 80.453186,27.408689 c 11.063912,-5.94034 18.350484,-6.494301 30.763284,0.379795"
       prop_scale="1"
       scale_y_rel="false"
       vertical="false"
       hide_knot="false"
       bendpath-nodetypes="cc" /><inkscape:path-effect
       effect="bend_path"
       id="path-effect155"
       is_visible="true"
       lpeversion="1"
       bendpath="M 80.453186,27.408689 C 91.718351,19.29978 99.069502,18.049957 111.21647,27.788484"
       prop_scale="1"
       scale_y_rel="false"
       vertical="false"
       hide_knot="false"
       bendpath-nodetypes="cc" /><inkscape:path-effect
       effect="offset"
       id="path-effect11"
       is_visible="true"
       lpeversion="1.2"
       linejoin_type="miter"
       unit="mm"
       offset="5.1834127"
       miter_limit="4"
       attempt_force_join="false"
       update_on_knot_move="true" /><inkscape:path-effect
       effect="knot"
       id="path-effect6"
       is_visible="true"
       lpeversion="1"
       switcher_size="15.5"
       interruption_width="2.3"
       prop_to_stroke_width="true"
       add_stroke_width="inkscape_1.0_and_up"
       both="false"
       inverse_width="false"
       add_other_stroke_width="inkscape_1.0_and_up"
       crossing_points_vector="" /><inkscape:path-effect
       effect="ruler"
       id="path-effect5"
       is_visible="true"
       lpeversion="1"
       unit="px"
       mark_distance="24.7"
       mark_length="21"
       minor_mark_length="-22"
       major_mark_steps="15"
       shift="12"
       offset="8"
       mark_dir="both"
       border_marks="both" /><inkscape:path-effect
       effect="bend_path"
       id="path-effect4"
       is_visible="true"
       lpeversion="1"
       bendpath="m 80.453186,27.408689 c 11.063912,-5.94034 18.350484,-6.494301 30.763284,0.379795"
       prop_scale="1"
       scale_y_rel="false"
       vertical="false"
       hide_knot="false"
       bendpath-nodetypes="cc" /><inkscape:path-effect
       effect="bend_path"
       id="path-effect10"
       is_visible="true"
       lpeversion="1"
       bendpath="m 80.453186,27.408689 c 11.063912,-5.94034 18.350484,-6.494301 30.763284,0.379795"
       prop_scale="1"
       scale_y_rel="false"
       vertical="false"
       hide_knot="false"
       bendpath-nodetypes="cc" /><inkscape:path-effect
       effect="transform_2pts"
       start="93.429439,10.254671"
       end="99.379464,20.516577"
       id="path-effect9"
       is_visible="true"
       lpeversion="1"
       first_knot="1"
       last_knot="15"
       helper_size="3"
       stretch="1"
       offset="0"
       elastic="false"
       from_original_width="false"
       flip_vertical="false"
       flip_horizontal="false"
       lock_length="false"
       lock_angle="false" /><inkscape:path-effect
       effect="envelope"
       id="path-effect8"
       is_visible="true"
       lpeversion="1"
       yy="true"
       xx="true"
       bendpath1="M 86.593164,10.254671 H 100.77214"
       bendpath2="m 100.77214,10.254671 c -8.391769,15.303687 -10.886363,28.06736 0,35.067627"
       bendpath3="M 86.593164,45.322298 H 100.77214"
       bendpath4="m 86.593164,10.254671 c -5.080341,11.924079 -5.741124,23.643836 0,35.067627"
       bendpath4-nodetypes="cc"
       bendpath2-nodetypes="cc" /><inkscape:path-effect
       effect="bend_path"
       id="path-effect7"
       is_visible="true"
       lpeversion="1"
       bendpath="m 86.593164,27.788484 c 4.82823,4.362762 25.126266,12.929751 6.962863,33.0422"
       prop_scale="0.82048471"
       scale_y_rel="false"
       vertical="true"
       hide_knot="false"
       bendpath-nodetypes="cc" /><radialGradient
       inkscape:collect="always"
       xlink:href="#linearGradient47"
       id="radialGradient49"
       cx="12.772509"
       cy="31.89781"
       fx="12.772509"
       fy="31.89781"
       r="21.106016"
       gradientTransform="matrix(1,0,0,1.0000088,0,-2.80953e-4)"
       gradientUnits="userSpaceOnUse" /></defs><g
     inkscape:label="cookie work"
     inkscape:groupmode="layer"
     id="layer1"
     style="display:inline"><circle
       style="fill:#000000;fill-opacity:1;stroke:none;stroke-width:4.22121;stroke-linecap:round;stroke-linejoin:bevel"
       id="path1"
       cx="38.430344"
       cy="30.442387"
       r="21.106033" /><path
       id="ellipse7"
       style="fill:#f2f2f2;fill-opacity:1;stroke:none;stroke-width:6.00001;stroke-linecap:round;stroke-linejoin:bevel"
       d="m 111.25762,27.521779 c 1.78575,-3.233457 0.81663,-7.599401 -3.25272,-9.192106 -1.37914,-0.538621 -2.91491,-0.634958 -4.32242,-0.270591 -0.98977,-1.024731 -2.36944,-1.727255 -3.930877,-1.964441 -1.296257,-0.190725 -2.634798,-0.04633 -3.820945,0.422596 -0.203437,-0.09717 -0.414188,-0.185816 -0.631605,-0.265432 -1.048673,-0.324844 -2.187321,-0.419606 -3.296935,-0.281823 -1.708768,0.224295 -3.204834,0.977148 -4.240813,2.077128 -1.327484,-0.309621 -2.756756,-0.214362 -4.05066,0.26736 -4.091914,1.537958 -5.086532,5.892738 -3.339263,9.138203 1.788028,3.321084 5.728731,4.705523 8.309882,3.654751 0.985848,-0.4063 1.774806,-1.138527 2.389798,-2.127291 0.920055,0.400505 1.797911,0.550447 2.597229,0.45833 0.590871,-0.07173 1.146437,-0.274992 1.688348,-0.605932 0.0077,-0.0054 0.01534,-0.01074 0.02301,-0.01615 0.709467,0.654712 1.446041,1.054663 2.260259,1.181679 0.933391,0.142617 1.996258,-0.07583 3.107679,-0.664894 0.5701,0.784081 1.27172,1.376079 2.11262,1.736259 2.61684,1.10008 6.57451,-0.246447 8.39741,-3.547647 z"
       transform="matrix(0.41465493,-0.56835025,0.56835025,0.41465493,1.1121406,86.746521)"
       inkscape:original-d="m 111.21647,27.535271 a 6.8996162,6.8363171 0 0 0 -6.89933,-6.836275 6.8996162,6.8363171 0 0 0 -3.76514,1.111043 6.8996162,7.0895138 0 0 0 -3.704167,-1.111043 6.8996162,7.0895138 0 0 0 -3.138827,0.79375 6.8996162,6.8363171 0 0 0 -3.191019,-0.79375 6.8996162,6.8363171 0 0 0 -3.931543,1.23455 6.8996162,6.8363171 0 0 0 -3.537769,-0.981335 6.8996162,6.8363171 0 0 0 -6.899837,6.836275 6.8996162,6.8363171 0 0 0 6.899837,6.836276 6.8996162,6.8363171 0 0 0 3.920691,-1.226799 6.8996162,6.8363171 0 0 0 3.548621,0.974099 6.8996162,6.8363171 0 0 0 2.706294,-0.559138 6.8996162,7.0895138 0 0 0 3.623552,1.065048 6.8996162,7.0895138 0 0 0 4.106727,-1.392676 6.8996162,6.8363171 0 0 0 3.36258,0.886766 6.8996162,6.8363171 0 0 0 6.89933,-6.836791 z"
       inkscape:path-effect="#path-effect10" /><text
       xml:space="preserve"
       style="font-weight:600;font-size:10.4241px;line-height:0.9;font-family:'Crimson Text';-inkscape-font-specification:'Crimson Text Semi-Bold';text-align:center;letter-spacing:0px;word-spacing:0px;text-anchor:middle;display:inline;fill:#f2f2f2;fill-opacity:1;stroke:none;stroke-width:4.22121;stroke-linecap:round;stroke-linejoin:bevel"
       x="21.373972"
       y="27.696247"
       id="text10"><tspan
         sodipodi:role="line"
         id="tspan10"
         style="font-style:normal;font-variant:normal;font-weight:600;font-stretch:normal;font-size:10.4241px;line-height:0.9;font-family:Gluten;-inkscape-font-specification:'Gluten Semi-Bold';text-align:start;letter-spacing:0px;text-anchor:start;stroke-width:4.22121"
         x="21.373972"
         y="27.696247">Smart</tspan><tspan
         sodipodi:role="line"
         style="font-style:normal;font-variant:normal;font-weight:600;font-stretch:normal;font-size:10.4241px;line-height:0.9;font-family:Gluten;-inkscape-font-specification:'Gluten Semi-Bold';text-align:start;letter-spacing:0px;text-anchor:start;stroke-width:4.22121"
         x="21.373972"
         y="37.084194"
         id="tspan1">Cook</tspan></text></g><g
     inkscape:groupmode="layer"
     id="layer4"
     inkscape:label="plate"><g
       id="g4"
       transform="matrix(0.70353445,0,0,0.70353445,111.98699,-120.79634)"><path
         id="rect3"
         style="fill:#800066;stroke:none;stroke-width:6.45905;stroke-linecap:round;stroke-linejoin:bevel"
         d="m 64.882901,212.43721 c 0.741433,5.07335 4.404687,13.87257 7.075862,17.52182 3.464678,4.73322 8.86244,4.81805 11.022256,4.87112 h 21.099921 c 2.15981,-0.0529 7.55758,-0.13772 11.02226,-4.87112 2.67117,-3.64925 6.33443,-12.44847 7.07586,-17.52182 0.74143,-5.07334 -58.037591,-5.07334 -57.296159,0 z"
         sodipodi:nodetypes="zsccszz" /><circle
         style="fill:#800066;stroke:none;stroke-width:12.4213;stroke-linecap:round;stroke-linejoin:bevel"
         id="path4"
         cx="89.938248"
         cy="207.01033"
         r="12.905243" /><circle
         style="fill:#800066;stroke:none;stroke-width:6.08038;stroke-linecap:round;stroke-linejoin:bevel"
         id="path4-8"
         cx="112.7859"
         cy="210.68802"
         r="6.3172817" /><circle
         style="fill:#800066;stroke:none;stroke-width:9.00774;stroke-linecap:round;stroke-linejoin:bevel"
         id="path4-2"
         cx="103.73529"
         cy="206.65921"
         r="9.3586998" /><circle
         style="fill:#800066;stroke:none;stroke-width:9.00774;stroke-linecap:round;stroke-linejoin:bevel"
         id="path4-2-5"
         cx="76.700607"
         cy="210.07109"
         r="9.3586998" /></g><text
       xml:space="preserve"
       style="font-weight:600;font-size:8.42349px;line-height:0.9;font-family:'Crimson Text';-inkscape-font-specification:'Crimson Text Semi-Bold';text-align:center;letter-spacing:0px;word-spacing:0px;text-anchor:middle;display:inline;fill:#f2f2f2;fill-opacity:1;stroke:none;stroke-width:3.41109;stroke-linecap:round;stroke-linejoin:bevel"
       x="177.91347"
       y="31.006113"
       id="text154-98"><tspan
         sodipodi:role="line"
         style="font-style:normal;font-variant:normal;font-weight:bold;font-stretch:normal;font-size:8.42349px;line-height:0.9;font-family:Gluten;-inkscape-font-specification:'Gluten Bold';text-align:center;letter-spacing:0px;text-anchor:middle;fill:#ffffff;stroke-width:3.41109"
         x="177.91347"
         y="31.006113"
         id="tspan154-7">Smart</tspan><tspan
         sodipodi:role="line"
         style="font-style:normal;font-variant:normal;font-weight:bold;font-stretch:normal;font-size:8.42349px;line-height:0.9;font-family:Gluten;-inkscape-font-specification:'Gluten Bold';text-align:center;letter-spacing:0px;text-anchor:middle;fill:#ffffff;stroke-width:3.41109"
         x="177.91347"
         y="38.592308"
         id="tspan4">Cook</tspan></text></g><g
     inkscape:groupmode="layer"
     id="layer2"
     inkscape:label="mrak"><path
       id="path156"
       style="fill:#0088aa;stroke:none;stroke-width:5.26558;stroke-linecap:round;stroke-linejoin:bevel"
       d="m 181.77608,59.833951 c -3.83481,0.006 -7.53527,1.76868 -10.40222,4.95607 -0.29872,-0.03 -0.59832,-0.0458 -0.898,-0.0473 -6.49883,-7e-5 -11.76708,6.59344 -11.76703,14.72679 -5e-5,8.13335 4.0041,8.50596 10.50293,8.50589 0,0 23.61168,0.0262 24.62785,0 1.01616,-0.0262 -0.7631,-1.32282 -0.83853,-2.06051 -0.0637,-0.62315 0.27238,-1.24847 0.34139,-1.84792 0.081,-0.70373 -0.43778,-1.41537 -0.19698,-2.06274 0.24118,-0.6484 1.14389,-0.77403 1.49949,-1.43488 0.32475,-0.60353 0.31313,-1.61735 0.8432,-2.19452 0.51268,-0.55824 1.49057,-0.51275 2.0456,-0.99284 0.55504,-0.48009 0.5589,-0.78943 1.06622,-1.19869 0.37254,-0.30053 1.64459,-0.16835 1.65749,-0.64898 0.0129,-0.48063 -2.52901,-4.45453 -4.66304,-5.35999 -2.73428,-6.36737 -8.04268,-10.33985 -13.81861,-10.34042 z"
       sodipodi:nodetypes="scccczasasazszcss" /><text
       xml:space="preserve"
       style="font-weight:600;font-size:8.83632px;line-height:0.9;font-family:'Crimson Text';-inkscape-font-specification:'Crimson Text Semi-Bold';text-align:center;letter-spacing:0px;word-spacing:0px;text-anchor:middle;display:inline;fill:#f2f2f2;fill-opacity:1;stroke:none;stroke-width:3.57824;stroke-linecap:round;stroke-linejoin:bevel"
       x="164.28023"
       y="76.246506"
       id="text154-3"><tspan
         sodipodi:role="line"
         id="tspan153-7"
         style="font-style:normal;font-variant:normal;font-weight:bold;font-stretch:normal;font-size:8.83632px;line-height:0.9;font-family:Gluten;-inkscape-font-specification:'Gluten Bold';text-align:start;letter-spacing:0px;text-anchor:start;fill:#ffffff;stroke-width:3.57823"
         x="164.28023"
         y="76.246506">Smart</tspan><tspan
         sodipodi:role="line"
         style="font-style:normal;font-variant:normal;font-weight:bold;font-stretch:normal;font-size:8.83632px;line-height:0.9;font-family:Gluten;-inkscape-font-specification:'Gluten Bold';text-align:start;letter-spacing:0px;text-anchor:start;fill:#ffffff;stroke-width:3.57823"
         x="164.28023"
         y="84.204498"
         id="tspan154-1">Cook</tspan></text></g><g
     inkscape:groupmode="layer"
     id="layer3"
     inkscape:label="hat"><path
       id="path3"
       style="fill:#006680;stroke:none;stroke-width:4.1756;stroke-linecap:round;stroke-linejoin:bevel"
       d="m 179.84693,102.34973 a 12.588216,9.2893162 0 0 0 -12.17493,6.94249 8.0217596,7.6694422 0 0 0 -0.0399,-0.001 8.0217596,7.6694422 0 0 0 -8.02191,7.66958 8.0217596,7.6694422 0 0 0 5.78772,7.36396 v 4.92487 c 0,0.68801 0.99227,1.24159 2.22481,1.24159 h 24.65507 c 1.23254,0 2.22481,-0.55358 2.22481,-1.24159 v -4.80418 a 9.0748873,8.6763161 0 0 0 7.31965,-8.49159 9.0748873,8.6763161 0 0 0 -9.07511,-8.67616 9.0748873,8.6763161 0 0 0 -1.67027,0.16701 12.588216,9.2893162 0 0 0 -11.22998,-5.09487 z" /><text
       xml:space="preserve"
       style="font-weight:600;font-size:9.03127px;line-height:0.9;font-family:'Crimson Text';-inkscape-font-specification:'Crimson Text Semi-Bold';text-align:center;letter-spacing:0px;word-spacing:0px;text-anchor:middle;display:inline;fill:#f2f2f2;fill-opacity:1;stroke:none;stroke-width:3.65723;stroke-linecap:round;stroke-linejoin:bevel"
       x="167.93466"
       y="117.82949"
       id="text154-9"><tspan
         sodipodi:role="line"
         id="tspan153-6"
         style="font-style:normal;font-variant:normal;font-weight:bold;font-stretch:normal;font-size:7.33259px;line-height:0.9;font-family:Gluten;-inkscape-font-specification:'Gluten Bold';text-align:start;letter-spacing:0px;text-anchor:start;fill:#ffffff;stroke-width:3.65722"
         x="167.93466"
         y="117.82949">Smart</tspan><tspan
         sodipodi:role="line"
         style="font-style:normal;font-variant:normal;font-weight:bold;font-stretch:normal;font-size:9.03127px;line-height:0.9;font-family:Gluten;-inkscape-font-specification:'Gluten Bold';text-align:start;letter-spacing:0px;text-anchor:start;fill:#ffffff;stroke-width:3.65722"
         x="167.93466"
         y="125.96305"
         id="tspan154-4">Cook</tspan></text></g><g
     inkscape:label="cookie"
     inkscape:groupmode="layer"
     id="g156"
     transform="translate(126.85167,71.907929)"
     style="display:inline"><path
       id="path155"
       style="fill:#a05a2c;fill-opacity:1;stroke:none;stroke-width:4.22121;stroke-linecap:round;stroke-linejoin:bevel"
       d="m -102.60864,-11.075675 c -11.60756,1.068106 -20.15148,11.34369758 -19.08338,22.951186 1.06809,11.60735 11.34355,20.15118 22.950934,19.0833 0.574147,-0.0704 1.419703,-0.0106 1.814667,-0.49793 0.567597,-0.70026 -0.05174,-1.82334 0.160221,-2.69948 0.09227,-0.3814 0.231424,-0.76952 0.475135,-1.07707 0.321694,-0.40596 0.922993,-0.52645 1.240752,-0.9355 0.655642,-0.844 0.635249,-2.0748 1.237154,-2.95793 0.252071,-0.36985 0.588579,-0.69077 0.963537,-0.93517 0.414452,-0.27014 0.954869,-0.29693 1.375609,-0.55717 0.77292,-0.47808 1.216747,-1.42838 2.044312,-1.80401 0.932571,-0.4233 2.093726,-0.021 3.046838,-0.39571 0.476497,-0.18736 0.781254,-0.68673 1.250045,-0.89261 0.434334,-0.19075 0.918528,-0.27591 1.392584,-0.29322 0.811267,-0.0296 1.847572,0.9088 2.413413,0.32669 2.377873,-2.44626 1.97223,-6.73542 1.669396,-10.2317404 -1.067918,-11.607654 -11.343586,-20.1517346 -22.951217,-19.0836356 z"
       sodipodi:nodetypes="sscaaaaaaaaaaascs" /><text
       xml:space="preserve"
       style="font-weight:600;font-size:9.853px;line-height:0.9;font-family:'Crimson Text';-inkscape-font-specification:'Crimson Text Semi-Bold';text-align:center;letter-spacing:0px;word-spacing:0px;text-anchor:middle;display:inline;fill:#f2f2f2;fill-opacity:1;stroke:none;stroke-width:3.98995;stroke-linecap:round;stroke-linejoin:bevel"
       x="-116.7255"
       y="8.0292397"
       id="text156"><tspan
         sodipodi:role="line"
         id="tspan155"
         style="font-style:normal;font-variant:normal;font-weight:bold;font-stretch:normal;font-size:9.853px;line-height:0.9;font-family:Gluten;-inkscape-font-specification:'Gluten Bold';text-align:start;letter-spacing:0px;text-anchor:start;fill:#ffffff;stroke-width:3.98995"
         x="-116.7255"
         y="8.0292397">Smart</tspan><tspan
         sodipodi:role="line"
         style="font-style:normal;font-variant:normal;font-weight:bold;font-stretch:normal;font-size:9.853px;line-height:0.9;font-family:Gluten;-inkscape-font-specification:'Gluten Bold';text-align:start;letter-spacing:0px;text-anchor:start;fill:#ffffff;stroke-width:3.98995"
         x="-116.7255"
         y="16.902853"
         id="tspan156">Cook</tspan></text></g><g
     inkscape:label="cookie 2"
     inkscape:groupmode="layer"
     id="g18"
     transform="translate(210.91305,72.66752)"
     style="display:inline"><path
       id="path17"
       style="fill:#784421;fill-opacity:1;stroke:none;stroke-width:4.22121;stroke-linecap:round;stroke-linejoin:bevel"
       d="m -139.00253,-11.835266 c -11.60756,1.068106 -20.15147,11.34369758 -19.08337,22.951187 1.06809,11.60735 11.34352,20.15117 22.95095,19.0833 0.57414,-0.0704 1.41971,-0.0106 1.81467,-0.49793 0.56761,-0.70027 -0.0517,-1.82335 0.16023,-2.69948 0.0923,-0.3814 0.23142,-0.76952 0.47513,-1.07707 0.3217,-0.40596 0.923,-0.52645 1.24076,-0.9355 0.65564,-0.844 0.63525,-2.0748 1.23715,-2.95793 0.25207,-0.36985 0.58858,-0.69077 0.96354,-0.93517 0.41445,-0.27014 0.95487,-0.29693 1.37561,-0.55717 0.77292,-0.47808 1.21675,-1.42838 2.04431,-1.80401 0.93257,-0.4233 2.09373,-0.021 3.04684,-0.39571 0.4765,-0.18736 0.78125,-0.68674 1.25004,-0.89261 0.43434,-0.19075 0.91853,-0.27591 1.39259,-0.29322 0.81127,-0.0296 1.84757,0.9088 2.41341,0.32669 2.37787,-2.44626 1.97223,-6.73542 1.6694,-10.2317404 -1.06792,-11.607655 -11.34359,-20.1517356 -22.95126,-19.0836366 z"
       sodipodi:nodetypes="sscaaaaaaaaaaascs" /><text
       xml:space="preserve"
       style="font-weight:600;font-size:9.853px;line-height:0.9;font-family:'Crimson Text';-inkscape-font-specification:'Crimson Text Semi-Bold';text-align:center;letter-spacing:0px;word-spacing:0px;text-anchor:middle;display:inline;fill:#f2f2f2;fill-opacity:1;stroke:none;stroke-width:3.98995;stroke-linecap:round;stroke-linejoin:bevel"
       x="-153.11935"
       y="7.2696419"
       id="text18"><tspan
         sodipodi:role="line"
         id="tspan17"
         style="font-style:normal;font-variant:normal;font-weight:bold;font-stretch:normal;font-size:9.853px;line-height:0.9;font-family:Gluten;-inkscape-font-specification:'Gluten Bold';text-align:start;letter-spacing:0px;text-anchor:start;fill:#ffffff;stroke-width:3.98995"
         x="-153.11935"
         y="7.2696419">Smart</tspan><tspan
         sodipodi:role="line"
         style="font-style:normal;font-variant:normal;font-weight:bold;font-stretch:normal;font-size:9.853px;line-height:0.9;font-family:Gluten;-inkscape-font-specification:'Gluten Bold';text-align:start;letter-spacing:0px;text-anchor:start;fill:#ffffff;stroke-width:3.98995"
         x="-153.11935"
         y="16.143255"
         id="tspan18">Cook</tspan></text></g><g
     inkscape:label="cookie 3"
     inkscape:groupmode="layer"
     id="g20"
     transform="translate(123.05371,141.03069)"
     style="display:inline"><path
       id="path18"
       style="fill:#784421;fill-opacity:1;stroke:none;stroke-width:4.22121;stroke-linecap:round;stroke-linejoin:bevel"
       d="m -3.4757562,-80.198436 c -11.6074868,1.068106 -20.1513548,11.343698 -19.0832628,22.951187 1.068092,11.607347 11.343453,20.151175 22.95081811,19.083301 0.57414677,-0.07037 1.41970289,-0.01062 1.81466649,-0.497933 0.5675968,-0.700264 -0.051745,-1.823344 0.1602215,-2.699476 0.092274,-0.3814 0.2314235,-0.769526 0.4751341,-1.077069 0.3216941,-0.405968 0.9229937,-0.526455 1.2407521,-0.935504 0.6556427,-0.844002 0.6352494,-2.074801 1.2371548,-2.957933 0.2520707,-0.369848 0.5885783,-0.690766 0.9635368,-0.935166 0.4144522,-0.270144 0.9548693,-0.296927 1.375609,-0.557171 0.7729198,-0.47808 1.2167473,-1.428379 2.0443121,-1.804011 0.932571,-0.423295 2.093727,-0.02097 3.046839,-0.39571 0.476498,-0.187358 0.781255,-0.686734 1.250046,-0.892609 0.434333,-0.190749 0.918528,-0.275912 1.392584,-0.293219 0.811267,-0.02962 1.847572,0.908798 2.413413,0.326686 2.377873,-2.446252 1.97223,-6.735413 1.669396,-10.23174 C 18.407546,-72.722454 8.1318756,-81.266535 -3.4757562,-80.198436 Z"
       sodipodi:nodetypes="sscaaaaaaaaaaascs" /><g
       id="g23"
       style="opacity:0.460048;fill:#502d16"
       transform="matrix(0.70353445,0,0,0.70353445,40.383848,-102.37868)"><path
         style="-inkscape-font-specification:'Gluten Bold';opacity:1;fill:#502d16;stroke-width:3.3;stroke-linecap:round;stroke-linejoin:bevel"
         d="m -70.845814,49.801357 c -0.587963,0 -1.154759,-0.0635 -1.700388,-0.1905 -0.545629,-0.127 -1.034814,-0.324555 -1.467554,-0.592666 -0.428037,-0.272815 -0.769055,-0.625592 -1.023055,-1.058333 -0.249296,-0.437444 -0.373944,-0.96661 -0.373944,-1.587499 0,-0.682036 0.119944,-1.284109 0.359833,-1.80622 0.239889,-0.526815 0.571499,-0.968963 0.994832,-1.326444 0.428037,-0.357481 0.921925,-0.625592 1.481666,-0.804333 0.55974,-0.183444 1.161814,-0.275166 1.806221,-0.275166 0.620888,0 1.204147,0.07761 1.749776,0.232833 0.545629,0.150519 1.027759,0.383352 1.446388,0.6985 0.418629,0.310444 0.745536,0.705555 0.980721,1.185332 0.239889,0.479777 0.359833,1.048925 0.359833,1.707443 0,0.526815 -0.122296,1.020703 -0.366888,1.481666 -0.239889,0.460963 -0.5715,0.865481 -0.994833,1.213554 -0.423333,0.348074 -0.912517,0.620889 -1.467554,0.818444 -0.555037,0.202259 -1.150055,0.303389 -1.785054,0.303389 z"
         id="text23"
         aria-label="o"
         sodipodi:nodetypes="ssccscccscccscscs" /><path
         style="-inkscape-font-specification:'Gluten Bold';display:inline;opacity:1;fill:#502d16;stroke-width:3.3;stroke-linecap:round;stroke-linejoin:bevel"
         d="m -40.48689,71.509148 c -0.587963,0 -1.154759,-0.0635 -1.700388,-0.1905 -0.545629,-0.127 -1.034814,-0.324555 -1.467554,-0.592666 -0.428037,-0.272815 -0.769055,-0.625592 -1.023055,-1.058333 -0.249296,-0.437444 -0.373944,-0.96661 -0.373944,-1.587499 0,-0.682036 0.119944,-1.284109 0.359833,-1.80622 0.239889,-0.526815 0.571499,-0.968963 0.994832,-1.326444 0.428037,-0.357481 0.921925,-0.625592 1.481666,-0.804333 0.55974,-0.183444 1.161814,-0.275166 1.806221,-0.275166 0.620888,0 1.204147,0.07761 1.749776,0.232833 0.545629,0.150519 1.027759,0.383352 1.446388,0.6985 0.418629,0.310444 0.745536,0.705555 0.980721,1.185332 0.239889,0.479777 0.359833,1.048925 0.359833,1.707443 0,0.526815 -0.122296,1.020703 -0.366888,1.481666 -0.239889,0.460963 -0.5715,0.865481 -0.994833,1.213554 -0.423333,0.348074 -0.912517,0.620889 -1.467554,0.818444 -0.555037,0.202259 -1.150055,0.303389 -1.785054,0.303389 z"
         id="text23-73"
         aria-label="o"
         sodipodi:nodetypes="ssccscccscccscscs" /><path
         style="-inkscape-font-specification:'Gluten Bold';display:inline;fill:#502d16;stroke-width:3.3;stroke-linecap:round;stroke-linejoin:bevel"
         d="m -44.642035,56.667255 c -0.587963,0 -1.154759,-0.0635 -1.700388,-0.1905 -0.545629,-0.127 -1.034814,-0.324555 -1.467554,-0.592666 -0.428037,-0.272815 -0.769055,-0.625592 -1.023055,-1.058333 -0.249296,-0.437444 -0.373944,-0.96661 -0.373944,-1.587499 0,-0.682036 0.119944,-1.284109 0.359833,-1.80622 0.239889,-0.526815 0.571499,-0.968963 0.994832,-1.326444 0.428037,-0.357481 0.921925,-0.625592 1.481666,-0.804333 0.55974,-0.183444 1.161814,-0.275166 1.806221,-0.275166 0.620888,0 1.204147,0.07761 1.749776,0.232833 0.545629,0.150519 1.027759,0.383352 1.446388,0.6985 0.418629,0.310444 0.745536,0.705555 0.980721,1.185332 0.239889,0.479777 0.359833,1.048925 0.359833,1.707443 0,0.526815 -0.122296,1.020703 -0.366888,1.481666 -0.239889,0.460963 -0.5715,0.865481 -0.994833,1.213554 -0.423333,0.348074 -0.912517,0.620889 -1.467554,0.818444 -0.555037,0.202259 -1.150055,0.303389 -1.785054,0.303389 z"
         id="text23-73-2"
         aria-label="o"
         sodipodi:nodetypes="ssccscccscccscscs" /><path
         style="-inkscape-font-specification:'Gluten Bold';display:inline;fill:#502d16;stroke-width:3.3;stroke-linecap:round;stroke-linejoin:bevel"
         d="m -75.592652,65.199524 c -0.587963,0 -1.154759,-0.0635 -1.700388,-0.1905 -0.545629,-0.127 -1.034814,-0.324555 -1.467554,-0.592666 -0.428037,-0.272815 -0.769055,-0.625592 -1.023055,-1.058333 -0.249296,-0.437444 -0.373944,-0.96661 -0.373944,-1.587499 0,-0.682036 0.119944,-1.284109 0.359833,-1.80622 0.239889,-0.526815 0.571499,-0.968963 0.994832,-1.326444 0.428037,-0.357481 0.921925,-0.625592 1.481666,-0.804333 0.55974,-0.183444 1.161814,-0.275166 1.806221,-0.275166 0.620888,0 1.204147,0.07761 1.749776,0.232833 0.545629,0.150519 1.027759,0.383352 1.446388,0.6985 0.418629,0.310444 0.745536,0.705555 0.980721,1.185332 0.239889,0.479777 0.359833,1.048925 0.359833,1.707443 0,0.526815 -0.122296,1.020703 -0.366888,1.481666 -0.239889,0.460963 -0.5715,0.865481 -0.994833,1.213554 -0.423333,0.348074 -0.912517,0.620889 -1.467554,0.818444 -0.555037,0.202259 -1.150055,0.303389 -1.785054,0.303389 z"
         id="text23-73-3"
         aria-label="o"
         sodipodi:nodetypes="ssccscccscccscscs" /><path
         style="-inkscape-font-specification:'Gluten Bold';display:inline;opacity:1;fill:#502d16;stroke-width:3.3;stroke-linecap:round;stroke-linejoin:bevel"
         d="m -55.56023,47.505362 c -0.58796,0 -1.15476,-0.0635 -1.70039,-0.1905 -0.54562,-0.127 -1.03481,-0.324555 -1.46755,-0.592666 -0.42804,-0.272815 -0.76906,-0.625592 -1.02306,-1.058333 -0.24929,-0.437444 -0.37394,-0.96661 -0.37394,-1.587499 0,-0.682036 0.11995,-1.284109 0.35983,-1.80622 0.23989,-0.526815 0.5715,-0.968963 0.99484,-1.326444 0.42803,-0.357481 0.92192,-0.625592 1.48166,-0.804333 0.55974,-0.183444 1.16182,-0.275166 1.80622,-0.275166 0.62089,0 1.20415,0.07761 1.74978,0.232833 0.54563,0.150519 1.02776,0.383352 1.44639,0.6985 0.41863,0.310444 0.74553,0.705555 0.98072,1.185332 0.23989,0.479777 0.35983,1.048925 0.35983,1.707443 0,0.526815 -0.1223,1.020703 -0.36689,1.481666 -0.23989,0.460963 -0.5715,0.865481 -0.99483,1.213554 -0.42333,0.348074 -0.91252,0.620889 -1.46755,0.818444 -0.55504,0.202259 -1.15006,0.303389 -1.78506,0.303389 z"
         id="text23-7"
         aria-label="o"
         sodipodi:nodetypes="ssccscccscccscscs" /><path
         style="-inkscape-font-specification:'Gluten Bold';display:inline;opacity:1;fill:#502d16;stroke-width:3.3;stroke-linecap:round;stroke-linejoin:bevel"
         d="m -56.205869,82.473418 c -0.587963,0 -1.154759,-0.0635 -1.700388,-0.1905 -0.545629,-0.127 -1.034814,-0.324555 -1.467554,-0.592666 -0.428037,-0.272815 -0.769055,-0.625592 -1.023055,-1.058333 -0.249296,-0.437444 -0.373944,-0.96661 -0.373944,-1.587499 0,-0.682036 0.119944,-1.284109 0.359833,-1.80622 0.239889,-0.526815 0.571499,-0.968963 0.994832,-1.326444 0.428037,-0.357481 0.921925,-0.625592 1.481666,-0.804333 0.55974,-0.183444 1.161814,-0.275166 1.806221,-0.275166 0.620888,0 1.204147,0.07761 1.749776,0.232833 0.545629,0.150519 1.027759,0.383352 1.446388,0.6985 0.418629,0.310444 0.745536,0.705555 0.980721,1.185332 0.239889,0.479777 0.359833,1.048925 0.359833,1.707443 0,0.526815 -0.122296,1.020703 -0.366888,1.481666 -0.239889,0.460963 -0.5715,0.865481 -0.994833,1.213554 -0.423333,0.348074 -0.912517,0.620889 -1.467554,0.818444 -0.555037,0.202259 -1.150055,0.303389 -1.785054,0.303389 z"
         id="text23-4"
         aria-label="o"
         sodipodi:nodetypes="ssccscccscccscscs" /><path
         style="-inkscape-font-specification:'Gluten Bold';display:inline;fill:#502d16;stroke-width:3.3;stroke-linecap:round;stroke-linejoin:bevel"
         d="m -58.985097,65.666681 c -0.587963,0 -1.154759,-0.0635 -1.700388,-0.1905 -0.545629,-0.127 -1.034814,-0.324555 -1.467554,-0.592666 -0.428037,-0.272815 -0.769055,-0.625592 -1.023055,-1.058333 -0.249296,-0.437444 -0.373944,-0.96661 -0.373944,-1.587499 0,-0.682036 0.119944,-1.284109 0.359833,-1.80622 0.239889,-0.526815 0.571499,-0.968963 0.994832,-1.326444 0.428037,-0.357481 0.921925,-0.625592 1.481666,-0.804333 0.55974,-0.183444 1.161814,-0.275166 1.806221,-0.275166 0.620888,0 1.204147,0.07761 1.749776,0.232833 0.545629,0.150519 1.027759,0.383352 1.446388,0.6985 0.418629,0.310444 0.745536,0.705555 0.980721,1.185332 0.239889,0.479777 0.359833,1.048925 0.359833,1.707443 0,0.526815 -0.122296,1.020703 -0.366888,1.481666 -0.239889,0.460963 -0.5715,0.865481 -0.994833,1.213554 -0.423333,0.348074 -0.912517,0.620889 -1.467554,0.818444 -0.555037,0.202259 -1.150055,0.303389 -1.785054,0.303389 z"
         id="text23-73-7"
         aria-label="o"
         sodipodi:nodetypes="ssccscccscccscscs" /><path
         style="-inkscape-font-specification:'Gluten Bold';display:inline;opacity:1;fill:#502d16;stroke-width:3.3;stroke-linecap:round;stroke-linejoin:bevel"
         d="m -71.971974,80.067025 c -0.587963,0 -1.154759,-0.0635 -1.700388,-0.1905 -0.545629,-0.127 -1.034814,-0.324555 -1.467554,-0.592666 -0.428037,-0.272815 -0.769055,-0.625592 -1.023055,-1.058333 -0.249296,-0.437444 -0.373944,-0.96661 -0.373944,-1.587499 0,-0.682036 0.119944,-1.284109 0.359833,-1.80622 0.239889,-0.526815 0.571499,-0.968963 0.994832,-1.326444 0.428037,-0.357481 0.921925,-0.625592 1.481666,-0.804333 0.55974,-0.183444 1.161814,-0.275166 1.806221,-0.275166 0.620888,0 1.204147,0.07761 1.749776,0.232833 0.545629,0.150519 1.027759,0.383352 1.446388,0.6985 0.418629,0.310444 0.745536,0.705555 0.980721,1.185332 0.239889,0.479777 0.359833,1.048925 0.359833,1.707443 0,0.526815 -0.122296,1.020703 -0.366888,1.481666 -0.239889,0.460963 -0.5715,0.865481 -0.994833,1.213554 -0.423333,0.348074 -0.912517,0.620889 -1.467554,0.818444 -0.555037,0.202259 -1.150055,0.303389 -1.785054,0.303389 z"
         id="text23-8"
         aria-label="o"
         sodipodi:nodetypes="ssccscccscccscscs" /></g><text
       xml:space="preserve"
       style="font-weight:600;font-size:9.853px;line-height:0.9;font-family:'Crimson Text';-inkscape-font-specification:'Crimson Text Semi-Bold';text-align:center;letter-spacing:0px;word-spacing:0px;text-anchor:middle;display:inline;fill:#f2f2f2;fill-opacity:1;stroke:none;stroke-width:3.98995;stroke-linecap:round;stroke-linejoin:bevel"
       x="-17.59264"
       y="-61.093521"
       id="text20"><tspan
         sodipodi:role="line"
         id="tspan19"
         style="font-style:normal;font-variant:normal;font-weight:bold;font-stretch:normal;font-size:9.853px;line-height:0.9;font-family:Gluten;-inkscape-font-specification:'Gluten Bold';text-align:start;letter-spacing:0px;text-anchor:start;fill:#ffffff;stroke-width:3.98995"
         x="-17.59264"
         y="-61.093521">Smart</tspan><tspan
         sodipodi:role="line"
         style="font-style:normal;font-variant:normal;font-weight:bold;font-stretch:normal;font-size:9.853px;line-height:0.9;font-family:Gluten;-inkscape-font-specification:'Gluten Bold';text-align:start;letter-spacing:0px;text-anchor:start;fill:#ffffff;stroke-width:3.98995"
         x="-17.59264"
         y="-52.21991"
         id="tspan20">Cook</tspan></text></g><g
     inkscape:label="cookie 4"
     inkscape:groupmode="layer"
     id="g22"
     transform="translate(206.3555,143.81586)"
     style="display:inline"><path
       id="path20"
       style="display:inline;fill:#483737;fill-opacity:1;stroke:none;stroke-width:2.1106;stroke-linecap:round;stroke-linejoin:bevel;stroke-dasharray:none;stroke-opacity:1"
       d="m -182.11259,-33.870936 c -11.60749,1.068106 -20.15136,11.343698 -19.08326,22.951187 1.06809,11.60734468 11.34345,20.1511698 22.95082,19.0832998 0.57414,-0.0704 1.4197,-0.0106 1.81467,-0.497934 0.56759,-0.700263 -0.0518,-1.823344 0.16021,-2.699476 0.0923,-0.3814 0.23143,-0.769526 0.47514,-1.0770691 0.32169,-0.405968 0.923,-0.526455 1.24075,-0.935504 0.65564,-0.844002 0.63525,-2.07480102 1.23715,-2.95793296 0.25207,-0.369848 0.58858,-0.69076597 0.96354,-0.93516597 0.41446,-0.27014397 0.95487,-0.29692697 1.37561,-0.55717197 0.77292,-0.478079 1.21675,-1.428379 2.04431,-1.80401 0.93257,-0.423295 2.09373,-0.02097 3.04684,-0.39571 0.4765,-0.187358 0.78125,-0.686734 1.25005,-0.892609 0.43433,-0.190749 0.91852,-0.275912 1.39258,-0.293219 0.81127,-0.02962 1.84757,0.908798 2.41341,0.326686 2.37788,-2.4462516 1.97223,-6.7354108 1.6694,-10.2317378 -1.06792,-11.607651 -11.34359,-20.151732 -22.95122,-19.083633 z"
       sodipodi:nodetypes="sscaaaaaaaaaaascs" /><text
       xml:space="preserve"
       style="font-weight:600;font-size:9.853px;line-height:0.9;font-family:'Crimson Text';-inkscape-font-specification:'Crimson Text Semi-Bold';text-align:center;letter-spacing:0px;word-spacing:0px;text-anchor:middle;display:inline;fill:#ffffff;fill-opacity:1;stroke:none;stroke-width:3.98995;stroke-linecap:round;stroke-linejoin:bevel"
       x="-196.2294"
       y="-14.766021"
       id="text22"><tspan
         sodipodi:role="line"
         id="tspan21"
         style="font-style:normal;font-variant:normal;font-weight:bold;font-stretch:normal;font-size:9.853px;line-height:0.9;font-family:Gluten;-inkscape-font-specification:'Gluten Bold';text-align:start;letter-spacing:0px;text-anchor:start;fill:#ffffff;stroke-width:3.98995"
         x="-196.2294"
         y="-14.766021">Smart</tspan><tspan
         sodipodi:role="line"
         style="font-style:normal;font-variant:normal;font-weight:bold;font-stretch:normal;font-size:9.853px;line-height:0.9;font-family:Gluten;-inkscape-font-specification:'Gluten Bold';text-align:start;letter-spacing:0px;text-anchor:start;fill:#ffffff;stroke-width:3.98995"
         x="-196.2294"
         y="-5.8924069"
         id="tspan22">Cook</tspan></text></g><g
     inkscape:label="cookie 5"
     inkscape:groupmode="layer"
     id="g24"
     transform="translate(271.85325,143.81586)"
     style="display:inline"><path
       id="path23"
       style="display:inline;fill:#483e37;fill-opacity:1;stroke:none;stroke-width:2.1106;stroke-linecap:round;stroke-linejoin:bevel;stroke-dasharray:none;stroke-opacity:1"
       d="m -199.9429,-33.870936 c -11.60749,1.068106 -20.15136,11.343698 -19.08327,22.951187 1.06809,11.60734468 11.34345,20.1511698 22.95082,19.0832998 0.57415,-0.0704 1.4197,-0.0106 1.81467,-0.497934 0.5676,-0.700263 -0.0518,-1.823344 0.16021,-2.699476 0.0923,-0.3814 0.23143,-0.769526 0.47514,-1.0770691 0.32169,-0.405968 0.923,-0.526455 1.24076,-0.935504 0.65563,-0.844002 0.63525,-2.07480102 1.23715,-2.95793296 0.25207,-0.369848 0.58858,-0.69076597 0.96354,-0.93516597 0.41445,-0.27014397 0.95486,-0.29692697 1.3756,-0.55717197 0.77292,-0.478079 1.21675,-1.428379 2.04431,-1.80401 0.93257,-0.423295 2.09373,-0.02097 3.04684,-0.39571 0.4765,-0.187358 0.78126,-0.686734 1.25005,-0.892609 0.43433,-0.190749 0.91853,-0.275912 1.39258,-0.293219 0.81127,-0.02962 1.84758,0.908798 2.41341,0.326686 2.37788,-2.4462516 1.97224,-6.7354108 1.6694,-10.2317378 -1.06792,-11.607651 -11.34358,-20.151732 -22.95121,-19.083633 z"
       sodipodi:nodetypes="sscaaaaaaaaaaascs" /><text
       xml:space="preserve"
       style="font-weight:600;font-size:9.853px;line-height:0.9;font-family:'Crimson Text';-inkscape-font-specification:'Crimson Text Semi-Bold';text-align:center;letter-spacing:0px;word-spacing:0px;text-anchor:middle;display:inline;fill:#ffffff;fill-opacity:1;stroke:none;stroke-width:3.98995;stroke-linecap:round;stroke-linejoin:bevel"
       x="-214.05975"
       y="-14.766021"
       id="text24"><tspan
         sodipodi:role="line"
         id="tspan23"
         style="font-style:normal;font-variant:normal;font-weight:bold;font-stretch:normal;font-size:9.853px;line-height:0.9;font-family:Gluten;-inkscape-font-specification:'Gluten Bold';text-align:start;letter-spacing:0px;text-anchor:start;fill:#ffffff;stroke-width:3.98995"
         x="-214.05975"
         y="-14.766021">Smart</tspan><tspan
         sodipodi:role="line"
         style="font-style:normal;font-variant:normal;font-weight:bold;font-stretch:normal;font-size:9.853px;line-height:0.9;font-family:Gluten;-inkscape-font-specification:'Gluten Bold';text-align:start;letter-spacing:0px;text-anchor:start;fill:#ffffff;stroke-width:3.98995"
         x="-214.05975"
         y="-5.8924074"
         id="tspan24">Cook</tspan></text></g><g
     inkscape:label="cookie drobek"
     inkscape:groupmode="layer"
     id="g5"
     transform="translate(342.45848,-9.2748713)"
     style="display:inline"><path
       id="path2"
       style="display:inline;fill:#483e37;fill-opacity:1;stroke:none;stroke-width:2.1106;stroke-linecap:round;stroke-linejoin:bevel;stroke-dasharray:none;stroke-opacity:1"
       d="m -318.42641,174.12871 c -11.60749,1.06811 -20.15136,11.3437 -19.08327,22.95119 1.06809,11.60734 11.34345,20.15117 22.95082,19.0833 0.57415,-0.0704 1.41971,-0.0106 1.81467,-0.49794 0.5676,-0.70026 -0.0518,-1.82334 0.16022,-2.69947 0.0923,-0.3814 0.23142,-0.76953 0.47514,-1.07707 0.32169,-0.40597 0.92299,-0.52646 1.24075,-0.9355 0.65564,-0.84401 0.63525,-2.07481 1.23715,-2.95794 0.25207,-0.36985 0.58858,-0.69076 0.96354,-0.93516 0.41445,-0.27015 0.95486,-0.29693 1.37561,-0.55718 0.77291,-0.47808 1.21675,-1.42837 2.04431,-1.80401 0.93257,-0.42329 2.09372,-0.021 3.04683,-0.39571 0.4765,-0.18735 0.78126,-0.68673 1.25005,-0.8926 0.43434,-0.19075 0.91853,-0.27592 1.39258,-0.29322 0.81127,-0.0296 1.84758,0.90879 2.41342,0.32668 2.37787,-2.44625 1.97223,-6.73541 1.66939,-10.23174 -1.06791,-11.60765 -11.34358,-20.15173 -22.95121,-19.08363 z"
       sodipodi:nodetypes="sscaaaaaaaaaaascs" /><g
       id="g1"
       inkscape:label="drobky"><path
         id="path5"
         style="opacity:1;fill:#483e37;stroke-width:2.39788;stroke-linecap:round;stroke-linejoin:bevel"
         d="m -310.96128,213.33183 c -0.0751,-0.71773 0.65451,-0.75478 1.08345,-0.82282 0.74933,-0.11885 1.0754,-0.0761 1.15051,0.64161 0.0751,0.71773 -0.0509,1.57385 -1.17921,1.43718 -0.66137,-0.0801 -0.97965,-0.53825 -1.05475,-1.25597 z"
         sodipodi:nodetypes="sssss" /><path
         id="path5-1"
         style="display:inline;fill:#483e37;stroke-width:1.89699;stroke-linecap:round;stroke-linejoin:bevel"
         d="m -306.36189,209.24125 c -0.14347,0.66338 -0.41484,0.75534 -0.96043,0.75534 -0.54557,0 -0.80492,0.002 -1.0153,-0.75534 -0.15927,-0.57375 0.44229,-1.0947 0.98787,-1.0947 0.54558,0 1.15531,0.32042 0.98786,1.0947 z"
         sodipodi:nodetypes="sssss" /><path
         id="path5-1-8"
         style="display:inline;fill:#483e37;stroke-width:1.72822;stroke-linecap:round;stroke-linejoin:bevel"
         d="m -305.48385,213.09784 c -0.40531,0.32358 -0.97619,0.23179 -1.27513,-0.20503 -0.29891,-0.43681 -0.45829,-1.31667 0.009,-1.51303 0.68936,-0.2899 1.50045,-0.34458 1.79937,0.0922 0.29893,0.43681 -0.12757,1.30224 -0.53287,1.62583 z"
         sodipodi:nodetypes="sssss" /><path
         id="path5-1-8-7"
         style="display:inline;fill:#483e37;stroke-width:1.92826;stroke-linecap:round;stroke-linejoin:bevel"
         d="m -302.04418,208.35509 c 0.31313,0.46301 -0.0864,1.54488 -0.65907,1.71504 -0.57273,0.17017 -1.28197,-0.54327 -1.41496,-1.09882 -0.133,-0.55556 -0.0116,-0.79389 0.56116,-0.96406 0.57273,-0.17016 1.2263,-0.0759 1.51287,0.34784 z"
         sodipodi:nodetypes="sssss" /><path
         id="ellipse6"
         style="display:inline;fill:#483e37;stroke-width:2.14313;stroke-linecap:round;stroke-linejoin:bevel"
         d="m -302.19167,205.4042 c 0.47409,-0.47284 1.17334,-1.12056 1.7985,-0.86267 0.62516,0.25791 0.95688,0.94068 0.74094,1.52502 -0.21595,0.58434 -0.67037,0.62577 -1.52297,0.59107 -0.66722,-0.0272 -1.45165,-0.81939 -1.01647,-1.25342 z"
         sodipodi:nodetypes="sssss" /></g><text
       xml:space="preserve"
       style="font-weight:600;font-size:9.853px;line-height:0.9;font-family:'Crimson Text';-inkscape-font-specification:'Crimson Text Semi-Bold';text-align:center;letter-spacing:0px;word-spacing:0px;text-anchor:middle;display:inline;fill:#ffffff;fill-opacity:1;stroke:none;stroke-width:3.98995;stroke-linecap:round;stroke-linejoin:bevel"
       x="-332.54324"
       y="193.23363"
       id="text3"
       transform="translate(9.7916666e-6)"><tspan
         sodipodi:role="line"
         id="tspan2"
         style="font-style:normal;font-variant:normal;font-weight:bold;font-stretch:normal;font-size:9.853px;line-height:0.9;font-family:Gluten;-inkscape-font-specification:'Gluten Bold';text-align:start;letter-spacing:0px;text-anchor:start;fill:#ffffff;stroke-width:3.98995"
         x="0"
         y="0">Smart</tspan><tspan
         sodipodi:role="line"
         style="font-style:normal;font-variant:normal;font-weight:bold;font-stretch:normal;font-size:9.853px;line-height:0.9;font-family:Gluten;-inkscape-font-specification:'Gluten Bold';text-align:start;letter-spacing:0px;text-anchor:start;fill:#ffffff;stroke-width:3.98995"
         x="0"
         y="0"
         id="tspan3">Cook</tspan></text></g><g
     inkscape:label="cookie drobek 2"
     inkscape:groupmode="layer"
     id="g12"
     transform="translate(392.75306,-9.2748713)"
     style="display:inline"><path
       id="path6"
       style="display:inline;fill:#483e37;fill-opacity:1;stroke:none;stroke-width:2.1106;stroke-linecap:round;stroke-linejoin:bevel;stroke-dasharray:none;stroke-opacity:1"
       d="m -318.42641,174.12871 c -11.60749,1.06811 -20.15136,11.3437 -19.08327,22.95119 1.06809,11.60734 11.34345,20.15117 22.95082,19.0833 0.57415,-0.0704 1.41971,-0.0106 1.81467,-0.49794 0.5676,-0.70026 -0.0518,-1.82334 0.16022,-2.69947 0.0923,-0.3814 0.23142,-0.76953 0.47514,-1.07707 0.32169,-0.40597 0.92299,-0.52646 1.24075,-0.9355 0.65564,-0.84401 0.63525,-2.07481 1.23715,-2.95794 0.25207,-0.36985 0.58858,-0.69076 0.96354,-0.93516 0.41445,-0.27015 0.95486,-0.29693 1.37561,-0.55718 0.77291,-0.47808 1.21675,-1.42837 2.04431,-1.80401 0.93257,-0.42329 2.09372,-0.021 3.04683,-0.39571 0.4765,-0.18735 0.78126,-0.68673 1.25005,-0.8926 0.43434,-0.19075 0.91853,-0.27592 1.39258,-0.29322 0.81127,-0.0296 1.84758,0.90879 2.41342,0.32668 2.37787,-2.44625 1.97223,-6.73541 1.66939,-10.23174 -1.06791,-11.60765 -11.34358,-20.15173 -22.95121,-19.08363 z"
       sodipodi:nodetypes="sscaaaaaaaaaaascs" /><g
       id="g11"
       inkscape:label="drobky"><path
         id="path7"
         style="opacity:1;fill:#483e37;stroke-width:2.17256;stroke-linecap:round;stroke-linejoin:bevel"
         d="m -311.54366,214.70447 c -0.068,-0.65029 0.593,-0.68385 0.98164,-0.74551 0.67892,-0.10764 0.97435,-0.0689 1.04241,0.58133 0.068,0.65028 -0.0461,1.42596 -1.06841,1.30213 -0.59923,-0.0726 -0.8876,-0.48767 -0.95564,-1.13795 z"
         sodipodi:nodetypes="sssss" /><path
         id="path8"
         style="display:inline;fill:#483e37;stroke-width:1.8609;stroke-linecap:round;stroke-linejoin:bevel"
         d="m -305.94752,215.00702 c -0.14074,0.65077 -0.40694,0.74098 -0.94216,0.74098 -0.53519,0 -0.7896,0.001 -0.99598,-0.74098 -0.15625,-0.56283 0.43387,-1.07386 0.96907,-1.07386 0.53521,0 1.13333,0.31432 0.96907,1.07386 z"
         sodipodi:nodetypes="sssss" /><path
         id="path9"
         style="display:inline;fill:#483e37;stroke-width:1.27722;stroke-linecap:round;stroke-linejoin:bevel"
         d="m -301.81209,215.81794 c -0.29954,0.23914 -0.72144,0.1713 -0.94237,-0.15153 -0.2209,-0.32281 -0.33869,-0.97306 0.007,-1.11818 0.50946,-0.21425 1.10888,-0.25466 1.3298,0.0681 0.22092,0.32282 -0.0943,0.9624 -0.39381,1.20155 z"
         sodipodi:nodetypes="sssss" /><path
         id="path10"
         style="display:inline;fill:#483e37;stroke-width:1.42506;stroke-linecap:round;stroke-linejoin:bevel"
         d="m -303.74599,213.07377 c 0.23141,0.34218 -0.0639,1.14172 -0.48708,1.26748 -0.42327,0.12576 -0.94742,-0.4015 -1.04571,-0.81207 -0.0983,-0.41058 -0.009,-0.58672 0.41472,-0.71248 0.42327,-0.12575 0.90628,-0.0561 1.11807,0.25707 z"
         sodipodi:nodetypes="sssss" /><path
         id="path11"
         style="display:inline;fill:#483e37;stroke-width:2.48835;stroke-linecap:round;stroke-linejoin:bevel"
         d="m -306.96424,211.83007 c -0.26176,0.73204 -0.67258,1.75965 -1.45672,1.80051 -0.78413,0.0409 -1.4721,-0.51005 -1.53664,-1.23048 -0.0646,-0.72045 0.39146,-0.99022 1.30299,-1.37845 0.71336,-0.30377 1.93065,0.13637 1.69037,0.80842 z"
         sodipodi:nodetypes="sssss" /></g><text
       xml:space="preserve"
       style="font-weight:600;font-size:9.853px;line-height:0.9;font-family:'Crimson Text';-inkscape-font-specification:'Crimson Text Semi-Bold';text-align:center;letter-spacing:0px;word-spacing:0px;text-anchor:middle;display:inline;fill:#ffffff;fill-opacity:1;stroke:none;stroke-width:3.98995;stroke-linecap:round;stroke-linejoin:bevel"
       x="-332.54324"
       y="193.23363"
       id="text12"
       transform="translate(9.7916666e-6)"><tspan
         sodipodi:role="line"
         id="tspan11"
         style="font-style:normal;font-variant:normal;font-weight:bold;font-stretch:normal;font-size:9.853px;line-height:0.9;font-family:Gluten;-inkscape-font-specification:'Gluten Bold';text-align:start;letter-spacing:0px;text-anchor:start;fill:#ffffff;stroke-width:3.98995"
         x="-332.54324"
         y="193.23363">Smart</tspan><tspan
         sodipodi:role="line"
         style="font-style:normal;font-variant:normal;font-weight:bold;font-stretch:normal;font-size:9.853px;line-height:0.9;font-family:Gluten;-inkscape-font-specification:'Gluten Bold';text-align:start;letter-spacing:0px;text-anchor:start;fill:#ffffff;stroke-width:3.98995"
         x="-332.54324"
         y="202.10724"
         id="tspan12">Cook</tspan></text></g><g
     inkscape:label="cookie drobek 3"
     inkscape:groupmode="layer"
     id="g57"
     transform="translate(445.41802,-9.0216744)"
     style="display:inline"><path
       id="path49"
       style="display:inline;fill:#483e37;fill-opacity:1;stroke:none;stroke-width:2.1106;stroke-linecap:round;stroke-linejoin:bevel;stroke-dasharray:none;stroke-opacity:1"
       d="m -318.42641,174.12871 c -11.60749,1.06811 -20.15136,11.3437 -19.08327,22.95119 1.06809,11.60734 11.34345,20.15117 22.95082,19.0833 0.57415,-0.0704 1.41971,-0.0106 1.81467,-0.49794 0.5676,-0.70026 -0.0518,-1.82334 0.16022,-2.69947 0.0923,-0.3814 0.23142,-0.76953 0.47514,-1.07707 0.32169,-0.40597 0.92299,-0.52646 1.24075,-0.9355 0.65564,-0.84401 0.63525,-2.07481 1.23715,-2.95794 0.25207,-0.36985 0.58858,-0.69076 0.96354,-0.93516 0.41445,-0.27015 0.95486,-0.29693 1.37561,-0.55718 0.77291,-0.47808 1.21675,-1.42837 2.04431,-1.80401 0.93257,-0.42329 2.09372,-0.021 3.04683,-0.39571 0.4765,-0.18735 0.78126,-0.68673 1.25005,-0.8926 0.43434,-0.19075 0.91853,-0.27592 1.39258,-0.29322 0.81127,-0.0296 1.84758,0.90879 2.41342,0.32668 2.37787,-2.44625 1.97223,-6.73541 1.66939,-10.23174 -1.06791,-11.60765 -11.34358,-20.15173 -22.95121,-19.08363 z"
       sodipodi:nodetypes="sscaaaaaaaaaaascs" /><g
       id="g56"
       inkscape:label="drobky"
       transform="matrix(1.5529228,0,0,1.5529228,172.26229,-119.40971)"><path
         id="path50"
         style="opacity:1;fill:#483e37;stroke-width:2.17256;stroke-linecap:round;stroke-linejoin:bevel"
         d="m -311.78823,214.2561 c -0.068,-0.65029 0.593,-0.68385 0.98164,-0.74551 0.67892,-0.10764 0.97435,-0.0689 1.04241,0.58133 0.068,0.65028 -0.0461,1.42596 -1.06841,1.30213 -0.59923,-0.0726 -0.8876,-0.48767 -0.95564,-1.13795 z"
         sodipodi:nodetypes="sssss" /><path
         id="path51"
         style="display:inline;fill:#483e37;stroke-width:1.55617;stroke-linecap:round;stroke-linejoin:bevel"
         d="m -303.33875,208.8122 c 0.24243,0.50123 0.1135,0.69776 -0.23913,0.97341 -0.35261,0.27562 -0.51971,0.40731 -1.0378,0.0247 -0.39281,-0.29035 -0.26719,-0.93095 0.0854,-1.20658 0.35263,-0.27564 0.90856,-0.37659 1.19151,0.20843 z"
         sodipodi:nodetypes="sssss" /><path
         id="path52"
         style="display:inline;fill:#483e37;stroke-width:1.08462;stroke-linecap:round;stroke-linejoin:bevel"
         d="m -308.18174,214.73894 c -0.25437,0.20308 -0.61265,0.14547 -0.80026,-0.12868 -0.18759,-0.27413 -0.28762,-0.82633 0.006,-0.94957 0.43264,-0.18194 0.94167,-0.21625 1.12927,0.0578 0.18761,0.27414 -0.0801,0.81728 -0.33442,1.02037 z"
         sodipodi:nodetypes="sssss" /><path
         id="path53"
         style="display:inline;fill:#483e37;stroke-width:1.42506;stroke-linecap:round;stroke-linejoin:bevel"
         d="m -305.66177,209.40525 c 0.23141,0.34218 -0.0639,1.14172 -0.48708,1.26748 -0.42327,0.12576 -0.94742,-0.4015 -1.04571,-0.81207 -0.0983,-0.41058 -0.009,-0.58672 0.41472,-0.71248 0.42327,-0.12575 0.90628,-0.0561 1.11807,0.25707 z"
         sodipodi:nodetypes="sssss" /><path
         id="path56"
         style="display:inline;fill:#483e37;stroke-width:2.48835;stroke-linecap:round;stroke-linejoin:bevel"
         d="m -307.12729,211.21865 c -0.26176,0.73204 -0.67258,1.75965 -1.45672,1.80051 -0.78413,0.0409 -1.4721,-0.51005 -1.53664,-1.23048 -0.0646,-0.72045 0.39146,-0.99022 1.30299,-1.37845 0.71336,-0.30377 1.93065,0.13637 1.69037,0.80842 z"
         sodipodi:nodetypes="sssss" /><path
         id="path56-6"
         style="display:inline;fill:#483e37;stroke-width:1.53612;stroke-linecap:round;stroke-linejoin:bevel"
         d="m -305.23019,211.78336 c -0.0179,0.50215 -0.47606,1.23315 -0.93109,1.13988 -0.45503,-0.0933 -0.77307,-0.5438 -0.71039,-1.00628 0.0627,-0.46249 0.36133,-0.56283 0.93743,-0.66852 0.45083,-0.0827 0.72415,-0.0272 0.70405,0.53492 z"
         sodipodi:nodetypes="sssss" /></g><text
       xml:space="preserve"
       style="font-weight:600;font-size:9.853px;line-height:0.9;font-family:'Crimson Text';-inkscape-font-specification:'Crimson Text Semi-Bold';text-align:center;letter-spacing:0px;word-spacing:0px;text-anchor:middle;display:inline;fill:#ffffff;fill-opacity:1;stroke:none;stroke-width:3.98995;stroke-linecap:round;stroke-linejoin:bevel"
       x="-332.54324"
       y="193.23363"
       id="text57"
       transform="translate(9.7916666e-6)"><tspan
         sodipodi:role="line"
         id="tspan56"
         style="font-style:normal;font-variant:normal;font-weight:bold;font-stretch:normal;font-size:9.853px;line-height:0.9;font-family:Gluten;-inkscape-font-specification:'Gluten Bold';text-align:start;letter-spacing:0px;text-anchor:start;fill:#ffffff;stroke-width:3.98995"
         x="-332.54324"
         y="193.23363">Smart</tspan><tspan
         sodipodi:role="line"
         style="font-style:normal;font-variant:normal;font-weight:bold;font-stretch:normal;font-size:9.853px;line-height:0.9;font-family:Gluten;-inkscape-font-specification:'Gluten Bold';text-align:start;letter-spacing:0px;text-anchor:start;fill:#ffffff;stroke-width:3.98995"
         x="-332.54324"
         y="202.10724"
         id="tspan57">Cook</tspan></text></g><g
     inkscape:label="cookie drobek 4"
     inkscape:groupmode="layer"
     id="g64"
     transform="rotate(-15.07215,-99.365868,-1685.7415)"
     style="display:inline"><path
       id="path57"
       style="display:inline;fill:#483e37;fill-opacity:1;stroke:none;stroke-width:2.1106;stroke-linecap:round;stroke-linejoin:bevel;stroke-dasharray:none;stroke-opacity:1"
       d="m -318.42641,174.12871 c -11.60749,1.06811 -20.15136,11.3437 -19.08327,22.95119 1.06809,11.60734 11.34345,20.15117 22.95082,19.0833 0.57415,-0.0704 1.41971,-0.0106 1.81467,-0.49794 0.5676,-0.70026 -0.0518,-1.82334 0.16022,-2.69947 0.0923,-0.3814 0.23142,-0.76953 0.47514,-1.07707 0.32169,-0.40597 0.92299,-0.52646 1.24075,-0.9355 0.65564,-0.84401 0.63525,-2.07481 1.23715,-2.95794 0.25207,-0.36985 0.58858,-0.69076 0.96354,-0.93516 0.41445,-0.27015 0.95486,-0.29693 1.37561,-0.55718 0.77291,-0.47808 1.21675,-1.42837 2.04431,-1.80401 0.93257,-0.42329 2.09372,-0.021 3.04683,-0.39571 0.4765,-0.18735 0.78126,-0.68673 1.25005,-0.8926 0.43434,-0.19075 0.91853,-0.27592 1.39258,-0.29322 0.81127,-0.0296 1.84758,0.90879 2.41342,0.32668 2.37787,-2.44625 1.97223,-6.73541 1.66939,-10.23174 -1.06791,-11.60765 -11.34358,-20.15173 -22.95121,-19.08363 z"
       sodipodi:nodetypes="sscaaaaaaaaaaascs" /><g
       id="g63"
       inkscape:label="drobky"
       transform="matrix(1.5529228,0,0,1.5529228,172.26229,-119.40971)"><path
         id="path58"
         style="opacity:1;fill:#483e37;stroke-width:2.17256;stroke-linecap:round;stroke-linejoin:bevel"
         d="m -311.78823,214.2561 c -0.068,-0.65029 0.593,-0.68385 0.98164,-0.74551 0.67892,-0.10764 0.97435,-0.0689 1.04241,0.58133 0.068,0.65028 -0.0461,1.42596 -1.06841,1.30213 -0.59923,-0.0726 -0.8876,-0.48767 -0.95564,-1.13795 z"
         sodipodi:nodetypes="sssss" /><path
         id="path59"
         style="display:inline;fill:#483e37;stroke-width:1.55617;stroke-linecap:round;stroke-linejoin:bevel"
         d="m -303.33875,208.8122 c 0.24243,0.50123 0.1135,0.69776 -0.23913,0.97341 -0.35261,0.27562 -0.51971,0.40731 -1.0378,0.0247 -0.39281,-0.29035 -0.26719,-0.93095 0.0854,-1.20658 0.35263,-0.27564 0.90856,-0.37659 1.19151,0.20843 z"
         sodipodi:nodetypes="sssss" /><path
         id="path60"
         style="display:inline;fill:#483e37;stroke-width:1.08462;stroke-linecap:round;stroke-linejoin:bevel"
         d="m -308.18174,214.73894 c -0.25437,0.20308 -0.61265,0.14547 -0.80026,-0.12868 -0.18759,-0.27413 -0.28762,-0.82633 0.006,-0.94957 0.43264,-0.18194 0.94167,-0.21625 1.12927,0.0578 0.18761,0.27414 -0.0801,0.81728 -0.33442,1.02037 z"
         sodipodi:nodetypes="sssss" /><path
         id="path61"
         style="display:inline;fill:#483e37;stroke-width:1.42506;stroke-linecap:round;stroke-linejoin:bevel"
         d="m -305.66177,209.40525 c 0.23141,0.34218 -0.0639,1.14172 -0.48708,1.26748 -0.42327,0.12576 -0.94742,-0.4015 -1.04571,-0.81207 -0.0983,-0.41058 -0.009,-0.58672 0.41472,-0.71248 0.42327,-0.12575 0.90628,-0.0561 1.11807,0.25707 z"
         sodipodi:nodetypes="sssss" /><path
         id="path62"
         style="display:inline;fill:#483e37;stroke-width:2.48835;stroke-linecap:round;stroke-linejoin:bevel"
         d="m -307.12729,211.21865 c -0.26176,0.73204 -0.67258,1.75965 -1.45672,1.80051 -0.78413,0.0409 -1.4721,-0.51005 -1.53664,-1.23048 -0.0646,-0.72045 0.39146,-0.99022 1.30299,-1.37845 0.71336,-0.30377 1.93065,0.13637 1.69037,0.80842 z"
         sodipodi:nodetypes="sssss" /><path
         id="path63"
         style="display:inline;fill:#483e37;stroke-width:1.53612;stroke-linecap:round;stroke-linejoin:bevel"
         d="m -305.23019,211.78336 c -0.0179,0.50215 -0.47606,1.23315 -0.93109,1.13988 -0.45503,-0.0933 -0.77307,-0.5438 -0.71039,-1.00628 0.0627,-0.46249 0.36133,-0.56283 0.93743,-0.66852 0.45083,-0.0827 0.72415,-0.0272 0.70405,0.53492 z"
         sodipodi:nodetypes="sssss" /></g><text
       xml:space="preserve"
       style="font-weight:600;font-size:9.853px;line-height:0.9;font-family:'Crimson Text';-inkscape-font-specification:'Crimson Text Semi-Bold';text-align:center;letter-spacing:0px;word-spacing:0px;text-anchor:middle;display:inline;fill:#ffffff;fill-opacity:1;stroke:none;stroke-width:3.98995;stroke-linecap:round;stroke-linejoin:bevel"
       x="-332.54324"
       y="193.23363"
       id="text64"
       transform="translate(9.7916666e-6)"><tspan
         sodipodi:role="line"
         id="tspan63"
         style="font-style:normal;font-variant:normal;font-weight:bold;font-stretch:normal;font-size:9.853px;line-height:0.9;font-family:Gluten;-inkscape-font-specification:'Gluten Bold';text-align:start;letter-spacing:0px;text-anchor:start;fill:#ffffff;stroke-width:3.98995"
         x="-332.54324"
         y="193.23363">Smart</tspan><tspan
         sodipodi:role="line"
         style="font-style:normal;font-variant:normal;font-weight:bold;font-stretch:normal;font-size:9.853px;line-height:0.9;font-family:Gluten;-inkscape-font-specification:'Gluten Bold';text-align:start;letter-spacing:0px;text-anchor:start;fill:#ffffff;stroke-width:3.98995"
         x="-332.54324"
         y="202.10724"
         id="tspan64">Cook</tspan></text></g><g
     inkscape:label="cookie drobek 5"
     inkscape:groupmode="layer"
     id="g71"
     transform="rotate(-15.07215,153.44576,-1379.6456)"
     style="display:inline"><rect
       style="display:inline;fill:#241f1c;fill-opacity:1;stroke-width:2.57696;stroke-linecap:round;stroke-linejoin:bevel"
       id="rect71"
       width="210.90593"
       height="78.776398"
       x="-364.03506"
       y="226.32735"
       transform="rotate(15.072151)" /><path
       id="path71"
       style="display:inline;opacity:1;fill:#483e37;stroke-width:2.17256;stroke-linecap:round;stroke-linejoin:bevel;stroke:#ffffff;stroke-opacity:1"
       d="m -311.24847,189.41639 c -1.49991,-0.39778 -3.09405,-0.54384 -4.72914,-0.39339 -7.4746,0.68781 -12.97648,7.30505 -12.28869,14.77965 0.68779,7.4745 7.3048,12.97626 14.77932,12.28861 0.36972,-0.0453 0.91418,-0.007 1.16852,-0.32081 0.3655,-0.45093 -0.0334,-1.17391 0.1031,-1.73809 0.0594,-0.2456 0.14911,-0.49564 0.30605,-0.69368 0.20715,-0.26142 0.59443,-0.33886 0.79906,-0.60226 0.42219,-0.5435 0.40902,-1.33622 0.79661,-1.90491 0.16232,-0.23816 0.37904,-0.44472 0.6205,-0.6021 0.26688,-0.17396 0.61493,-0.19143 0.88587,-0.35902 0.49771,-0.30785 0.78344,-0.91962 1.31634,-1.16151 0.60052,-0.27257 1.34827,-0.0137 1.96203,-0.25496 0.30684,-0.12064 0.50289,-0.4423 0.80477,-0.57487 0.27969,-0.12284 0.59157,-0.17744 0.89684,-0.18858 0.52241,-0.0191 1.18975,0.58522 1.55412,0.21037 1.53122,-1.57525 1.27013,-4.33737 1.07512,-6.58882 -0.53725,-5.83961 -4.69357,-10.47499 -10.05042,-11.89563 z m 7.46154,18.98799 c -0.25302,-0.0665 -0.53388,0.0356 -0.74325,0.19926 -0.35259,0.27563 -0.47824,0.91626 -0.0854,1.20661 0.51809,0.38261 0.68511,0.25112 1.03772,-0.0245 0.35263,-0.27565 0.48153,-0.47239 0.2391,-0.97362 -0.11495,-0.23766 -0.27502,-0.36223 -0.44814,-0.40775 z m -2.28075,0.72569 c -0.21699,-0.0615 -0.47396,-0.0526 -0.71205,0.0181 -0.42372,0.12576 -0.51317,0.30204 -0.41487,0.71262 0.0983,0.41057 0.62248,0.93776 1.04575,0.812 0.42318,-0.12576 0.71856,-0.92546 0.48715,-1.26764 -0.0927,-0.13702 -0.23721,-0.22728 -0.40598,-0.2751 z m -1.76244,1.24402 c -0.32463,-0.0878 -0.69768,-0.0871 -0.98748,0.0363 -0.91153,0.38823 -1.36767,0.65797 -1.30307,1.3784 0.0645,0.72043 0.75244,1.27112 1.53657,1.23022 0.78414,-0.0409 1.19497,-1.06851 1.45673,-1.80055 0.14266,-0.39903 -0.2283,-0.71604 -0.70275,-0.84438 z m 2.322,0.85897 c -0.11303,-0.0273 -0.25695,-0.0155 -0.42601,0.0155 -0.5761,0.10569 -0.87477,0.2059 -0.93747,0.66837 -0.0627,0.46248 0.25512,0.91299 0.71015,1.00629 0.45503,0.0933 0.91349,-0.63759 0.93139,-1.13974 0.0126,-0.35133 -0.0897,-0.50499 -0.27806,-0.55046 z m -2.59643,2.31383 c -0.24038,-0.0667 -0.57407,-0.0114 -0.87151,0.11372 -0.29362,0.12324 -0.19346,0.67545 -0.006,0.94958 0.18761,0.27415 0.546,0.33177 0.80037,0.12869 l 3.2e-4,9e-5 c 0.25432,-0.20309 0.52209,-0.74651 0.33448,-1.02065 -0.0586,-0.0856 -0.14853,-0.14111 -0.25779,-0.17143 z m -2.01827,-0.0545 c -0.16329,-0.0479 -0.38677,-0.0289 -0.68379,0.0181 -0.38864,0.0617 -1.04966,0.0951 -0.98166,0.74539 0.068,0.65028 0.35628,1.06558 0.95551,1.13818 1.02231,0.12383 1.13657,-0.65205 1.06857,-1.30233 -0.0383,-0.36576 -0.14867,-0.53781 -0.35863,-0.59939 z"
       transform="matrix(1.5529228,0,0,1.5529228,171.62416,-122.54821)" /><path
       id="path64"
       style="display:inline;fill:#483e37;fill-opacity:1;stroke:none;stroke-width:2.1106;stroke-linecap:round;stroke-linejoin:bevel;stroke-dasharray:none;stroke-opacity:1"
       d="m -319.06454,170.99021 c -11.60749,1.06811 -20.15136,11.3437 -19.08327,22.95119 1.06809,11.60734 11.34345,20.15117 22.95082,19.0833 0.57415,-0.0704 1.41971,-0.0106 1.81467,-0.49794 0.5676,-0.70026 -0.0518,-1.82334 0.16022,-2.69947 0.0923,-0.3814 0.23142,-0.76953 0.47514,-1.07707 0.32169,-0.40597 0.92299,-0.52646 1.24075,-0.9355 0.65564,-0.84401 0.63525,-2.07481 1.23715,-2.95794 0.25207,-0.36985 0.58858,-0.69076 0.96354,-0.93516 0.41445,-0.27015 0.95486,-0.29693 1.37561,-0.55718 0.77291,-0.47808 1.21675,-1.42837 2.04431,-1.80401 0.93257,-0.42329 2.09372,-0.021 3.04683,-0.39571 0.4765,-0.18735 0.78126,-0.68673 1.25005,-0.8926 0.43434,-0.19075 0.91853,-0.27592 1.39258,-0.29322 0.81127,-0.0296 1.84758,0.90879 2.41342,0.32668 2.37787,-2.44625 1.97223,-6.73541 1.66939,-10.23174 -1.06791,-11.60765 -11.34358,-20.15173 -22.95121,-19.08363 z"
       sodipodi:nodetypes="sscaaaaaaaaaaascs" /><g
       id="g70"
       inkscape:label="drobky"
       transform="matrix(1.5529228,0,0,1.5529228,171.62416,-122.54821)"><path
         id="path65"
         style="opacity:1;fill:#483e37;stroke-width:2.17256;stroke-linecap:round;stroke-linejoin:bevel"
         d="m -311.78823,214.2561 c -0.068,-0.65029 0.593,-0.68385 0.98164,-0.74551 0.67892,-0.10764 0.97435,-0.0689 1.04241,0.58133 0.068,0.65028 -0.0461,1.42596 -1.06841,1.30213 -0.59923,-0.0726 -0.8876,-0.48767 -0.95564,-1.13795 z"
         sodipodi:nodetypes="sssss" /><path
         id="path66"
         style="display:inline;fill:#483e37;stroke-width:1.55617;stroke-linecap:round;stroke-linejoin:bevel"
         d="m -303.33875,208.8122 c 0.24243,0.50123 0.1135,0.69776 -0.23913,0.97341 -0.35261,0.27562 -0.51971,0.40731 -1.0378,0.0247 -0.39281,-0.29035 -0.26719,-0.93095 0.0854,-1.20658 0.35263,-0.27564 0.90856,-0.37659 1.19151,0.20843 z"
         sodipodi:nodetypes="sssss" /><path
         id="path67"
         style="display:inline;fill:#483e37;stroke-width:1.08462;stroke-linecap:round;stroke-linejoin:bevel"
         d="m -308.18174,214.73894 c -0.25437,0.20308 -0.61265,0.14547 -0.80026,-0.12868 -0.18759,-0.27413 -0.28762,-0.82633 0.006,-0.94957 0.43264,-0.18194 0.94167,-0.21625 1.12927,0.0578 0.18761,0.27414 -0.0801,0.81728 -0.33442,1.02037 z"
         sodipodi:nodetypes="sssss" /><path
         id="path68"
         style="display:inline;fill:#483e37;stroke-width:1.42506;stroke-linecap:round;stroke-linejoin:bevel"
         d="m -305.66177,209.40525 c 0.23141,0.34218 -0.0639,1.14172 -0.48708,1.26748 -0.42327,0.12576 -0.94742,-0.4015 -1.04571,-0.81207 -0.0983,-0.41058 -0.009,-0.58672 0.41472,-0.71248 0.42327,-0.12575 0.90628,-0.0561 1.11807,0.25707 z"
         sodipodi:nodetypes="sssss" /><path
         id="path69"
         style="display:inline;fill:#483e37;stroke-width:2.48835;stroke-linecap:round;stroke-linejoin:bevel"
         d="m -307.12729,211.21865 c -0.26176,0.73204 -0.67258,1.75965 -1.45672,1.80051 -0.78413,0.0409 -1.4721,-0.51005 -1.53664,-1.23048 -0.0646,-0.72045 0.39146,-0.99022 1.30299,-1.37845 0.71336,-0.30377 1.93065,0.13637 1.69037,0.80842 z"
         sodipodi:nodetypes="sssss" /><path
         id="path70"
         style="display:inline;fill:#483e37;stroke-width:1.53612;stroke-linecap:round;stroke-linejoin:bevel"
         d="m -305.23019,211.78336 c -0.0179,0.50215 -0.47606,1.23315 -0.93109,1.13988 -0.45503,-0.0933 -0.77307,-0.5438 -0.71039,-1.00628 0.0627,-0.46249 0.36133,-0.56283 0.93743,-0.66852 0.45083,-0.0827 0.72415,-0.0272 0.70405,0.53492 z"
         sodipodi:nodetypes="sssss" /></g><text
       xml:space="preserve"
       style="font-weight:600;font-size:9.853px;line-height:0.9;font-family:'Crimson Text';-inkscape-font-specification:'Crimson Text Semi-Bold';text-align:center;letter-spacing:0px;word-spacing:0px;text-anchor:middle;display:inline;fill:#ffffff;fill-opacity:1;stroke:none;stroke-width:3.98995;stroke-linecap:round;stroke-linejoin:bevel"
       x="-333.18137"
       y="190.09512"
       id="text71"><tspan
         sodipodi:role="line"
         id="tspan70"
         style="font-style:normal;font-variant:normal;font-weight:bold;font-stretch:normal;font-size:9.853px;line-height:0.9;font-family:Gluten;-inkscape-font-specification:'Gluten Bold';text-align:start;letter-spacing:0px;text-anchor:start;fill:#ffffff;stroke-width:3.98995"
         x="-333.18137"
         y="190.09512">Smart</tspan><tspan
         sodipodi:role="line"
         style="font-style:normal;font-variant:normal;font-weight:bold;font-stretch:normal;font-size:9.853px;line-height:0.9;font-family:Gluten;-inkscape-font-specification:'Gluten Bold';text-align:start;letter-spacing:0px;text-anchor:start;fill:#ffffff;stroke-width:3.98995"
         x="-333.18137"
         y="198.96873"
         id="tspan71">Cook</tspan></text></g><g
     inkscape:label="cookie 6"
     inkscape:groupmode="layer"
     id="g26"
     transform="translate(337.351,143.81586)"
     style="display:inline"><path
       id="path24"
       style="display:inline;fill:#782144;fill-opacity:1;stroke:none;stroke-width:2.1106;stroke-linecap:round;stroke-linejoin:bevel;stroke-dasharray:none;stroke-opacity:1"
       d="m -217.77322,-33.870936 c -11.60749,1.068106 -20.15136,11.343698 -19.08327,22.951187 1.0681,11.60734468 11.34345,20.1511698 22.95082,19.0832998 0.57415,-0.0704 1.41971,-0.0106 1.81467,-0.497934 0.5676,-0.700263 -0.0518,-1.823344 0.16022,-2.699476 0.0923,-0.3814 0.23143,-0.769526 0.47514,-1.0770691 0.32169,-0.405968 0.92299,-0.526455 1.24075,-0.935504 0.65564,-0.844002 0.63525,-2.07480102 1.23715,-2.95793296 0.25207,-0.369848 0.58858,-0.69076597 0.96354,-0.93516597 0.41445,-0.27014397 0.95487,-0.29692697 1.37561,-0.55717197 0.77292,-0.478079 1.21675,-1.428379 2.04431,-1.80401 0.93257,-0.423295 2.09372,-0.02097 3.04684,-0.39571 0.47649,-0.187358 0.78125,-0.686734 1.25004,-0.892609 0.43434,-0.190749 0.91853,-0.275912 1.39259,-0.293219 0.81126,-0.02962 1.84757,0.908798 2.41341,0.326686 2.37787,-2.4462516 1.97223,-6.7354108 1.66939,-10.2317378 -1.06791,-11.607651 -11.34358,-20.151732 -22.95121,-19.083633 z"
       sodipodi:nodetypes="sscaaaaaaaaaaascs" /><text
       xml:space="preserve"
       style="font-weight:600;font-size:9.853px;line-height:0.9;font-family:'Crimson Text';-inkscape-font-specification:'Crimson Text Semi-Bold';text-align:center;letter-spacing:0px;word-spacing:0px;text-anchor:middle;display:inline;fill:#ffffff;fill-opacity:1;stroke:none;stroke-width:3.98995;stroke-linecap:round;stroke-linejoin:bevel"
       x="-231.89011"
       y="-14.766021"
       id="text26"><tspan
         sodipodi:role="line"
         id="tspan25"
         style="font-style:normal;font-variant:normal;font-weight:bold;font-stretch:normal;font-size:9.853px;line-height:0.9;font-family:Gluten;-inkscape-font-specification:'Gluten Bold';text-align:start;letter-spacing:0px;text-anchor:start;fill:#ffffff;stroke-width:3.98995"
         x="-231.89011"
         y="-14.766021">Smart</tspan><tspan
         sodipodi:role="line"
         style="font-style:normal;font-variant:normal;font-weight:bold;font-stretch:normal;font-size:9.853px;line-height:0.9;font-family:Gluten;-inkscape-font-specification:'Gluten Bold';text-align:start;letter-spacing:0px;text-anchor:start;fill:#ffffff;stroke-width:3.98995"
         x="-231.89011"
         y="-5.8924074"
         id="tspan26">Cook</tspan></text></g><g
     inkscape:label="cookie one path"
     inkscape:groupmode="layer"
     id="g3"
     transform="translate(86.475)"
     style="display:inline"><path
       id="circle1"
       style="fill:url(#radialGradient49);fill-opacity:1;stroke:none;stroke-width:4.22121;stroke-linecap:round;stroke-linejoin:bevel"
       d="m 12.772679,10.791608 a 21.106033,21.106033 0 0 0 -21.1061852,21.106203 21.106033,21.106033 0 0 0 21.1061852,21.1062 21.106033,21.106033 0 0 0 7.667515,-1.49715 c -0.146854,-0.7501 -0.101111,-1.57343 0.206503,-2.43186 0.330519,-0.91339 0.930056,-1.72323 1.700378,-2.29444 -0.118546,-1.05643 0.158383,-2.20166 0.815833,-3.22043 0.431143,-0.65797 1.00044,-1.22568 1.652024,-1.64039 0.14167,-0.0804 0.285005,-0.15323 0.42973,-0.21813 0.288339,-0.84976 0.820089,-1.63352 1.512417,-2.24209 0.837953,-0.72968 1.842822,-1.15011 2.843053,-1.21466 0.445183,-0.92091 1.195974,-1.70086 2.112656,-2.19554 0.611362,-0.32935 1.226419,-0.50825 1.823262,-0.56171 a 21.106033,21.106033 0 0 0 0.342475,-3.5898 A 21.106033,21.106033 0 0 0 12.772679,10.791608 Z M -0.59364843,23.769301 c 0.26755067,0 0.52279567,0.0156 0.76602334,0.0469 0.246703,0.0313 0.46907867,0.0834 0.66713467,0.15633 0.19805702,0.0695 0.35469262,0.16128 0.46935762,0.27594 0.114664,0.11119 0.171964,0.24861 0.171964,0.41192 0,0.18763 -0.04527,0.34067 -0.135608,0.45881 -0.08687,0.11466 -0.201467,0.19963 -0.3439286,0.25522 -0.14246202,0.0556 -0.29388902,0.0833 -0.45372369,0.0833 -0.07297,0 -0.147511,-0.012 -0.223954,-0.0364 -0.07644,-0.0243 -0.163383,-0.0488 -0.260674,-0.0731 -0.09382,-0.0243 -0.21200967,-0.0364 -0.35447167,-0.0364 -0.09729,0 -0.19266967,0.007 -0.28648667,0.0207 -0.09034,0.0139 -0.172072,0.0367 -0.245041,0.068 -0.07297,0.0313 -0.131883,0.0762 -0.17705397,0.13525 -0.0417,0.0556 -0.06253,0.1269 -0.06253,0.21377 0,0.0938 0.02766,0.17914 0.08326,0.25558 0.05559,0.0764 0.132116,0.14578 0.229407,0.20833 0.09729,0.0625 0.211892,0.12343 0.34392967,0.1825 0.135512,0.0556 0.283346,0.11451 0.443181,0.17706 0.21890467,0.0834 0.43607167,0.18596 0.65150134,0.30757 0.218905,0.12161 0.41685102,0.26424 0.59405862,0.42755 0.177209,0.15983 0.3178551,0.34377 0.4220947,0.55225 0.107715,0.20848 0.161421,0.44127 0.161421,0.6984 0,0.35094 -0.09376,0.65182 -0.2813956,0.902 -0.1876331,0.25017 -0.4428791,0.45333 -0.76602372,0.60969 -0.32314467,0.15636 -0.68975967,0.27096 -1.09977234,0.34393 -0.41001267,0.073 -0.83913634,0.10943 -1.28737004,0.10943 -0.316197,0 -0.6287427,-0.0192 -0.9379887,-0.0574 -0.3057717,-0.0348 -0.5858117,-0.0937 -0.8394634,-0.17706 -0.253652,-0.0834 -0.4568067,-0.19637 -0.6096917,-0.33884 -0.149411,-0.14246 -0.2239537,-0.31957 -0.2239537,-0.53152 0,-0.21543 0.04849,-0.38212 0.1457877,-0.50026 0.09729,-0.12162 0.227518,-0.20533 0.3908277,-0.2505 0.16331,-0.0486 0.340783,-0.0727 0.5318907,-0.0727 0.04517,0 0.11091,0.0104 0.197777,0.0313 0.09034,0.0208 0.192909,0.0433 0.307574,0.0676 0.1146637,0.0243 0.2344737,0.0364 0.3595617,0.0364 0.180683,0 0.3405497,-0.007 0.4795377,-0.0207 0.138987,-0.0139 0.2571807,-0.0383 0.3544717,-0.0731 0.09729,-0.0382 0.170219,-0.0919 0.218864,-0.16143 0.05212,-0.0695 0.07817,-0.15804 0.07817,-0.26576 0,-0.0903 -0.02766,-0.17046 -0.08326,-0.23995 -0.05212,-0.0695 -0.127026,-0.13362 -0.224317,-0.19269 -0.09729,-0.0625 -0.2118917,-0.11984 -0.3439287,-0.17196 -0.128564,-0.0521 -0.270825,-0.10781 -0.4271847,-0.16688 -0.236279,-0.0834 -0.4606337,-0.18075 -0.6725887,-0.29194 -0.208481,-0.11119 -0.3924147,-0.23782 -0.5522497,-0.38028 -0.159835,-0.14246 -0.2868317,-0.30395 -0.3806487,-0.48463 -0.09034,-0.18416 -0.135608,-0.38768 -0.135608,-0.61006 0,-0.27797 0.06808,-0.5228 0.203594,-0.73475 0.1389867,-0.21196 0.3248997,-0.39266 0.5577027,-0.54207 0.2328037,-0.14942 0.4948737,-0.26922 0.7867474,-0.35957 0.291873,-0.0938 0.5923847,-0.16153 0.9016314,-0.20323 0.309247,-0.0417 0.60652867,-0.0625 0.89145267,-0.0625 z m 27.46197743,0.2814 c 0.198057,0 0.354693,0.0241 0.469357,0.0727 0.11814,0.0452 0.20831,0.11846 0.270854,0.21923 0.06602,0.0973 0.120089,0.22751 0.161785,0.39082 l 0.03636,0.21887 c 0.01043,0.0625 0.01923,0.12146 0.02618,0.17705 0.01043,0.0556 0.01886,0.11128 0.02581,0.16688 0.007,0.0521 0.01575,0.11103 0.02618,0.17705 0.01389,0.10424 0.05718,0.18436 0.130155,0.23995 0.07297,0.0521 0.161523,0.087 0.265764,0.10434 0.09034,0.0139 0.177281,0.0276 0.260674,0.0414 0.08339,0.0104 0.165123,0.0208 0.24504,0.0313 0.08339,0.0104 0.163508,0.0208 0.239951,0.0313 0.177209,0.0243 0.336712,0.0868 0.479174,0.1876 0.145937,0.0973 0.219228,0.26236 0.219228,0.49517 0,0.20153 -0.05928,0.36661 -0.177418,0.49517 -0.11814,0.12509 -0.267588,0.19801 -0.448272,0.21886 -0.156361,0.0104 -0.307424,0.0192 -0.453361,0.0262 -0.145937,0.007 -0.264131,0.0157 -0.354473,0.0262 -0.07644,0.007 -0.145777,0.033 -0.208321,0.0782 -0.06254,0.0417 -0.100987,0.12863 -0.114885,0.26067 0,0.073 -0.0016,0.14751 -0.0051,0.22395 -0.0034,0.0764 -0.0051,0.15297 -0.0051,0.22941 0.0035,0.0764 0.0051,0.15099 0.0051,0.22395 0,0.073 0.0016,0.14429 0.0051,0.21378 0.0034,0.0695 0.0087,0.13362 0.01563,0.19269 0.01043,0.12856 0.04527,0.22269 0.104342,0.28176 0.05907,0.0591 0.163252,0.0883 0.312663,0.0883 0.107715,0 0.198249,-0.0208 0.271217,-0.0625 0.07644,-0.0452 0.147392,-0.0868 0.213411,-0.12506 0.06949,-0.0417 0.146015,-0.0625 0.229407,-0.0625 0.138988,0 0.237961,0.0365 0.29703,0.10943 0.06254,0.073 0.0938,0.18074 0.0938,0.3232 0,0.16331 -0.05532,0.31115 -0.166511,0.44319 -0.11119,0.12856 -0.257408,0.23795 -0.438092,0.32829 -0.177209,0.0903 -0.373539,0.15968 -0.58897,0.20832 -0.211956,0.0486 -0.421935,0.0731 -0.630416,0.0731 -0.295348,0 -0.575024,-0.0401 -0.839101,-0.11998 -0.264075,-0.0799 -0.479627,-0.21014 -0.646412,-0.39082 -0.166785,-0.18416 -0.25534,-0.43258 -0.265763,-0.74531 -0.0035,-0.0799 -0.0071,-0.16685 -0.01055,-0.26067 0,-0.0973 -0.0016,-0.19626 -0.0051,-0.29703 v -0.30757 -0.30758 -0.29703 c 0,-0.15288 -0.04006,-0.25185 -0.119976,-0.29703 -0.07992,-0.0486 -0.1841,-0.0783 -0.312663,-0.0887 -0.06949,-0.007 -0.146016,-0.0138 -0.229408,-0.0207 -0.07992,-0.007 -0.163263,-0.0138 -0.25013,-0.0207 -0.08339,-0.0104 -0.170332,-0.0192 -0.260674,-0.0262 -0.180683,-0.0243 -0.324923,-0.10084 -0.432638,-0.2294 -0.104241,-0.13204 -0.156332,-0.31436 -0.156332,-0.54717 0,-0.16331 0.03125,-0.28832 0.0938,-0.37519 0.06254,-0.0903 0.146254,-0.15645 0.250495,-0.19814 0.107714,-0.0417 0.222314,-0.0766 0.343929,-0.10434 0.152886,-0.0243 0.288323,-0.0468 0.406462,-0.0676 0.121614,-0.0243 0.22939,-0.0468 0.323207,-0.0676 0.09729,-0.0208 0.175427,-0.0541 0.234497,-0.0992 0.06254,-0.0452 0.100623,-0.12493 0.114521,-0.23959 0.0139,-0.0799 0.0263,-0.16003 0.03672,-0.23995 0.01043,-0.0799 0.02085,-0.15805 0.03127,-0.2345 0.0139,-0.0764 0.02953,-0.14416 0.0469,-0.20323 0.06949,-0.20153 0.163258,-0.34577 0.281397,-0.43264 0.118139,-0.0869 0.302073,-0.13015 0.55225,-0.13015 z m -5.462152,1.04233 c 0.2884,0 0.570054,0.0244 0.844554,0.0731 0.2745,0.0452 0.520943,0.1181 0.739848,0.21887 0.22238,0.0973 0.399853,0.22069 0.531891,0.3701 0.132038,0.14941 0.197777,0.32814 0.197777,0.53662 0,0.19806 -0.03969,0.35271 -0.119611,0.4639 -0.07992,0.11119 -0.182485,0.18933 -0.307573,0.2345 -0.125089,0.0417 -0.255317,0.0625 -0.390829,0.0625 -0.208481,0 -0.403197,-0.0241 -0.58388,-0.0727 -0.180684,-0.0486 -0.391027,-0.0731 -0.63078,-0.0731 -0.2745,0 -0.489688,0.0798 -0.646049,0.23959 -0.156361,0.15983 -0.234497,0.39982 -0.234497,0.71949 0,0.12161 0.0052,0.24142 0.01563,0.35956 0.0139,0.11814 0.02953,0.23274 0.0469,0.34393 0.01738,0.10771 0.03461,0.21388 0.05199,0.31812 0.01737,0.10076 0.03138,0.19614 0.04181,0.28648 0.0139,0.0903 0.02073,0.17369 0.02073,0.25013 0,0.35094 -0.08173,0.61338 -0.245041,0.78711 -0.159835,0.17026 -0.415081,0.25522 -0.766025,0.25522 -0.170259,0 -0.321323,-0.0224 -0.453361,-0.0676 -0.128563,-0.0417 -0.243527,-0.10259 -0.344292,-0.18251 -0.100766,-0.0834 -0.189322,-0.18075 -0.265764,-0.29194 -0.08687,-0.12856 -0.163025,-0.27442 -0.229044,-0.43773 -0.06602,-0.16678 -0.121704,-0.3403 -0.166875,-0.52098 -0.04517,-0.18416 -0.08002,-0.37205 -0.104342,-0.56316 -0.02085,-0.19458 -0.03126,-0.38211 -0.03126,-0.56279 0,-0.58375 0.126997,-1.07898 0.380649,-1.48551 0.253652,-0.41002 0.606255,-0.72256 1.057965,-0.93799 0.455183,-0.21543 0.984897,-0.32321 1.589491,-0.32321 z m -7.265417,0.20832 c 0.663665,0 1.223017,0.0697 1.6782,0.20868 0.455185,0.13899 0.800964,0.37861 1.037242,0.71913 0.239754,0.33704 0.359563,0.80461 0.359563,1.40225 0,0.13204 -0.0068,0.24826 -0.02073,0.34902 -0.01043,0.10077 -0.02443,0.18932 -0.04181,0.26576 -0.0139,0.073 -0.02791,0.13908 -0.04181,0.19815 -0.01043,0.0591 -0.01563,0.11475 -0.01563,0.16687 0,0.0973 0.03323,0.19267 0.09925,0.28649 0.06949,0.0938 0.14763,0.19117 0.234498,0.29194 0.09034,0.10076 0.168478,0.21015 0.234497,0.32829 0.06602,0.11814 0.09889,0.25196 0.09889,0.40138 0,0.2189 -0.07095,0.38038 -0.213411,0.48462 -0.138987,0.10424 -0.300833,0.15633 -0.484991,0.15633 -0.145937,0 -0.262153,-0.0365 -0.34902,-0.10943 -0.08687,-0.073 -0.161772,-0.14589 -0.224317,-0.21886 -0.06254,-0.073 -0.131878,-0.10943 -0.208321,-0.10943 -0.05559,0 -0.118104,0.0176 -0.187598,0.0524 -0.06602,0.0347 -0.144155,0.0832 -0.234497,0.14578 -0.107716,0.073 -0.248361,0.15632 -0.422095,0.25013 -0.17026,0.0973 -0.380603,0.18064 -0.630779,0.25013 -0.250178,0.0695 -0.552669,0.10435 -0.907086,0.10435 -0.295348,0 -0.585443,-0.0277 -0.870367,-0.0833 -0.284924,-0.0521 -0.541785,-0.14265 -0.771114,-0.27122 -0.225854,-0.12508 -0.406557,-0.29375 -0.54207,-0.50571 -0.135513,-0.21196 -0.203595,-0.47403 -0.203595,-0.78675 0,-0.30924 0.0785,-0.56647 0.234861,-0.77147 0.159836,-0.20501 0.373408,-0.36847 0.640959,-0.49009 0.267551,-0.12161 0.569678,-0.20657 0.906723,-0.25522 0.340518,-0.0521 0.691507,-0.0782 1.052874,-0.0782 0.09034,0 0.180875,0.004 0.271216,0.0105 0.09034,0.003 0.173688,0.009 0.250131,0.0156 0.07644,0.003 0.137337,0.005 0.182508,0.005 0.07992,0 0.133624,-0.012 0.161421,-0.0364 0.03127,-0.0278 0.0469,-0.0731 0.0469,-0.1356 0,-0.066 -0.0088,-0.1253 -0.02618,-0.17742 -0.01738,-0.0521 -0.04144,-0.099 -0.07271,-0.1407 -0.03127,-0.0417 -0.06971,-0.0762 -0.114886,-0.10398 -0.08339,-0.0591 -0.18919,-0.10272 -0.317753,-0.13052 -0.128563,-0.0278 -0.269209,-0.0414 -0.422095,-0.0414 -0.194582,0 -0.387682,0.0208 -0.57879,0.0625 -0.191107,0.0417 -0.380249,0.0834 -0.567883,0.12506 -0.184158,0.0417 -0.37007,0.0625 -0.557703,0.0625 -0.319671,0 -0.568092,-0.0521 -0.745301,-0.15633 -0.177209,-0.10771 -0.265764,-0.27279 -0.265764,-0.49517 0,-0.20848 0.07095,-0.39116 0.213411,-0.54752 0.142462,-0.15984 0.335562,-0.29007 0.57879,-0.39083 0.243228,-0.10424 0.515716,-0.18076 0.818013,-0.22941 0.305772,-0.0521 0.618682,-0.0782 0.938353,-0.0782 z m -9.3867875,0.24504 c 0.2849236,0 0.5193327,0.0573 0.7034903,0.17196 0.184158,0.11119 0.3336061,0.25543 0.4482697,0.43264 0.11814,0.17721 0.211904,0.36312 0.281397,0.5577 0.05559,0.15636 0.1216981,0.29378 0.1981411,0.41192 0.07644,0.11814 0.1666126,0.17705 0.2708526,0.17705 0.118139,0 0.2223211,-0.0433 0.3126627,-0.13015 0.09382,-0.0869 0.193153,-0.22428 0.297393,-0.41192 0.1146641,-0.21195 0.2448917,-0.40307 0.3908277,-0.57333 0.149412,-0.17374 0.3301151,-0.31079 0.5420697,-0.41156 0.2154301,-0.10076 0.4758847,-0.15124 0.7816568,-0.15124 0.4447596,0 0.8009563,0.10939 1.0685059,0.3283 0.267551,0.21543 0.460288,0.51594 0.578427,0.90163 0.118139,0.38569 0.177417,0.82721 0.177417,1.32409 0,0.14594 -0.0036,0.29179 -0.01055,0.43773 -0.007,0.14246 -0.01737,0.28311 -0.03126,0.4221 -0.0139,0.13551 -0.03312,0.26574 -0.05744,0.39082 -0.02432,0.12509 -0.0536,0.24167 -0.08835,0.34939 -0.07992,0.2189 -0.192903,0.38398 -0.338839,0.49517 -0.142462,0.10771 -0.3351997,0.16142 -0.5784267,0.16142 -0.2258536,0 -0.4117667,-0.0505 -0.5577037,-0.15124 -0.1424606,-0.10077 -0.2522157,-0.23459 -0.3286587,-0.40137 -0.0139,-0.0556 -0.02593,-0.11451 -0.03636,-0.17706 -0.01043,-0.066 -0.01923,-0.13733 -0.02618,-0.21377 -0.007,-0.0765 -0.01378,-0.1562 -0.02073,-0.23959 -0.007,-0.0869 -0.01216,-0.1774 -0.01563,-0.27122 -0.0034,-0.0938 -0.0087,-0.19279 -0.01563,-0.29703 -0.01043,-0.17373 -0.03288,-0.32318 -0.06762,-0.44827 -0.03127,-0.12509 -0.07295,-0.22047 -0.1250656,-0.28648 -0.04864,-0.0695 -0.1111541,-0.10435 -0.1875971,-0.10435 -0.08339,0 -0.163508,0.0433 -0.23995,0.13016 -0.07297,0.0869 -0.1423016,0.19823 -0.2083207,0.33375 -0.06602,0.13551 -0.132122,0.27616 -0.198141,0.42209 -0.128563,0.31967 -0.2728016,0.55085 -0.4326367,0.69331 -0.159836,0.13899 -0.3874206,0.20833 -0.6827687,0.20833 -0.2988227,0 -0.5228137,-0.0798 -0.6722247,-0.23959 -0.1494107,-0.15984 -0.2591657,-0.35976 -0.3286587,-0.59951 -0.05212,-0.19111 -0.102233,-0.35259 -0.150878,-0.48463 -0.04517,-0.13204 -0.09565,-0.23101 -0.1512416,-0.29703 -0.05559,-0.0695 -0.1233131,-0.10434 -0.2032301,-0.10434 -0.07644,0 -0.151349,0.0348 -0.224318,0.10434 -0.06949,0.066 -0.1352327,0.1666 -0.1977767,0.30212 -0.05559,0.13551 -0.104455,0.27813 -0.146152,0.42755 -0.03822,0.14593 -0.07109,0.29179 -0.09889,0.43772 -0.02432,0.14247 -0.04516,0.27988 -0.06253,0.41192 -0.06255,0.30925 -0.1651117,0.52641 -0.3075737,0.6515 -0.142462,0.12162 -0.3716617,0.18215 -0.6878577,0.18215 -0.2328027,0 -0.4187157,-0.0573 -0.5577027,-0.17197 -0.1355126,-0.11814 -0.2328697,-0.278 -0.2919387,-0.47954 -0.05907,-0.20153 -0.08871,-0.43234 -0.08871,-0.69294 0,-0.12857 0.0036,-0.26598 0.01055,-0.41192 0.01043,-0.14941 0.02407,-0.30048 0.04144,-0.45336 0.02085,-0.15289 0.04726,-0.30593 0.07853,-0.45882 0.03127,-0.15288 0.06935,-0.30035 0.1145211,-0.44281 0.04864,-0.14594 0.1023506,-0.28336 0.1614216,-0.41192 0.225854,-0.45518 0.4987047,-0.79377 0.8183757,-1.01615 0.3231447,-0.22238 0.7037714,-0.33375 1.1415815,-0.33375 z m 9.6787285,3.02301 c -0.173735,0 -0.340789,0.0192 -0.500625,0.0574 -0.159835,0.0348 -0.291678,0.0953 -0.395918,0.18215 -0.100766,0.0869 -0.151242,0.20704 -0.151242,0.35993 0,0.11119 0.02964,0.20136 0.08871,0.27085 0.06255,0.0695 0.14589,0.12158 0.25013,0.15633 0.104241,0.0313 0.222435,0.0469 0.354473,0.0469 0.128563,0 0.255197,-0.0173 0.380285,-0.052 0.125089,-0.0382 0.240053,-0.0903 0.344293,-0.15633 0.104241,-0.0695 0.187586,-0.15123 0.250131,-0.24504 0.06254,-0.0938 0.0938,-0.198 0.0938,-0.31267 0,-0.0869 -0.02802,-0.15135 -0.08362,-0.19305 -0.05559,-0.0417 -0.136961,-0.071 -0.244677,-0.0883 -0.10424,-0.0174 -0.232853,-0.0262 -0.385738,-0.0262 z m 4.909536,4.48853 c 0.302298,0 0.503837,0.10095 0.604603,0.30248 0.104241,0.20154 0.156332,0.47402 0.156332,0.81802 0,0.0973 -0.0032,0.19986 -0.01018,0.30757 -0.0035,0.10772 -0.01067,0.21909 -0.02108,0.33375 -0.01043,0.11467 -0.02246,0.22926 -0.03636,0.34393 l -0.03127,0.33375 c -0.01043,0.10771 -0.01923,0.2119 -0.02618,0.31266 -0.0035,0.0973 -0.0051,0.18908 -0.0051,0.27595 0,0.11119 0.0068,0.20693 0.02073,0.28685 0.0139,0.0764 0.03995,0.11452 0.07817,0.11452 0.0417,0 0.08696,-0.0173 0.135609,-0.052 0.05212,-0.0347 0.104211,-0.0832 0.156331,-0.14579 0.04517,-0.0486 0.100856,-0.10793 0.166875,-0.17742 0.06602,-0.0695 0.138946,-0.14404 0.218864,-0.22395 0.07992,-0.0834 0.15967,-0.16351 0.239588,-0.23995 0.08339,-0.0799 0.161892,-0.15285 0.23486,-0.21887 0.07644,-0.066 0.142183,-0.11811 0.197778,-0.15633 0.11119,-0.073 0.234593,-0.12865 0.370106,-0.16688 0.138987,-0.0417 0.272808,-0.0625 0.401372,-0.0625 0.232804,0 0.42231,0.0593 0.568247,0.17742 0.145936,0.11814 0.218864,0.27801 0.218864,0.47954 0,0.13899 -0.04365,0.28286 -0.130518,0.43227 -0.08339,0.14942 -0.215236,0.28845 -0.39592,0.41701 -0.142462,0.12161 -0.277898,0.23137 -0.406461,0.32866 -0.125089,0.0938 -0.240053,0.18919 -0.344293,0.28649 -0.09729,0.0834 -0.145789,0.15272 -0.145789,0.20832 0,0.0313 0.01401,0.0629 0.04181,0.0942 0.03127,0.0278 0.07456,0.0555 0.130156,0.0833 0.07644,0.0486 0.1738,0.10954 0.29194,0.18251 0.121613,0.073 0.250226,0.15272 0.385739,0.23959 0.138987,0.0834 0.272808,0.17033 0.401371,0.26067 0.128564,0.0903 0.23957,0.17728 0.333386,0.26068 0.08339,0.0764 0.149496,0.15619 0.198142,0.23958 0.05212,0.0834 0.07817,0.17393 0.07817,0.27122 0,0.13899 -0.04006,0.27083 -0.119975,0.39592 -0.07992,0.12509 -0.187694,0.22604 -0.323207,0.30248 -0.135512,0.0765 -0.289806,0.11452 -0.463541,0.11452 -0.159835,0 -0.307669,-0.0312 -0.443182,-0.0938 -0.132038,-0.0626 -0.257056,-0.14751 -0.375195,-0.25523 -0.121614,-0.0973 -0.25382,-0.20866 -0.396283,-0.33374 -0.138986,-0.12509 -0.283227,-0.25891 -0.432638,-0.40138 -0.149411,-0.14593 -0.296882,-0.28496 -0.442818,-0.417 -0.07992,-0.0799 -0.156439,-0.14764 -0.229407,-0.20323 -0.07297,-0.0556 -0.147512,-0.0833 -0.223954,-0.0833 -0.07992,0 -0.142791,0.0244 -0.187962,0.0731 -0.04517,0.0486 -0.07643,0.10917 -0.0938,0.18214 -0.06602,0.24323 -0.128527,0.45357 -0.187597,0.63078 -0.05559,0.17374 -0.112895,0.32157 -0.171965,0.44318 -0.100765,0.19111 -0.216981,0.32978 -0.349019,0.41664 -0.128563,0.0869 -0.300827,0.13052 -0.516258,0.13052 -0.250177,0 -0.442914,-0.0593 -0.578427,-0.17742 -0.135513,-0.11813 -0.229276,-0.28321 -0.281396,-0.49517 -0.05212,-0.21195 -0.07817,-0.45839 -0.07817,-0.73984 0,-0.15636 0.0088,-0.33905 0.02618,-0.54753 0.02085,-0.20848 0.04491,-0.43606 0.07271,-0.68277 0.03127,-0.25017 0.06451,-0.50901 0.09925,-0.77656 0.03822,-0.28145 0.07989,-0.55071 0.125065,-0.80784 0.04864,-0.25712 0.09714,-0.49674 0.145788,-0.71912 0.04864,-0.22586 0.100737,-0.42901 0.156332,-0.60969 0.05907,-0.18416 0.116369,-0.3408 0.171965,-0.46936 0.121614,-0.25713 0.265853,-0.45867 0.432638,-0.6046 0.166785,-0.14594 0.363116,-0.21887 0.58897,-0.21887 z m -19.66503276,0.4221 c 0.257126,0 0.50231767,0.026 0.73512167,0.0782 0.23280367,0.0521 0.43757267,0.12703 0.61478169,0.22432 0.1806836,0.0973 0.3216916,0.21351 0.4224576,0.34902 0.1042401,0.13551 0.1563321,0.28855 0.1563321,0.45881 0,0.23976 -0.05928,0.42405 -0.1774191,0.55262 -0.114664,0.12509 -0.272552,0.18759 -0.47408262,0.18759 -0.11119,0 -0.210163,-0.0104 -0.29703,-0.0313 -0.08687,-0.0208 -0.17578467,-0.0437 -0.26612667,-0.068 -0.09034,-0.0278 -0.19093,-0.0519 -0.30212,-0.0727 -0.10771467,-0.0208 -0.23794167,-0.0313 -0.39082867,-0.0313 -0.149411,0 -0.29041967,0.0345 -0.42245767,0.10398 -0.128563,0.0695 -0.243163,0.17206 -0.34392867,0.30757 -0.100766,0.13204 -0.180517,0.29352 -0.239587,0.48463 -0.05559,0.19111 -0.08362,0.41025 -0.08362,0.65695 0,0.19459 0.01922,0.37852 0.05744,0.55225 0.0417,0.17026 0.106183,0.32169 0.19305,0.45373 0.09034,0.12856 0.20817267,0.23077 0.35410867,0.30721 0.145937,0.0764 0.32663967,0.11488 0.54206967,0.11488 0.135513,0 0.26251,-0.0192 0.38064967,-0.0574 0.118139,-0.0382 0.231124,-0.0835 0.338839,-0.13561 0.107715,-0.0521 0.21351167,-0.097 0.31775167,-0.13524 0.104241,-0.0417 0.21201702,-0.0625 0.32320672,-0.0625 0.3266199,0 0.5489956,0.0745 0.6671346,0.22395 0.118138,0.14941 0.177417,0.34934 0.177417,0.59951 0,0.24323 -0.07329,0.45842 -0.219227,0.64605 -0.1424616,0.18416 -0.3404067,0.33882 -0.5940587,0.46391 -0.25365162,0.12161 -0.54536062,0.21376 -0.87545529,0.2763 -0.33009467,0.066 -0.68108267,0.0993 -1.05287434,0.0993 -0.47603067,0 -0.91036437,-0.0645 -1.30300307,-0.19305 -0.392639,-0.12509 -0.7315937,-0.31101 -1.0165177,-0.55771 -0.2849227,-0.2467 -0.5053207,-0.54883 -0.6616814,-0.90672 -0.15636,-0.35789 -0.23486,-0.76816 -0.23486,-1.23029 0,-0.549 0.08532,-1.04746 0.255583,-1.4957 0.1702597,-0.44823 0.4150877,-0.83407 0.7347574,-1.15721 0.319671,-0.32315 0.7055077,-0.57157 1.1572164,-0.7453 0.4517077,-0.17374 0.96058337,-0.26068 1.52695704,-0.26068 z m 6.24925226,0.83401 c 0.4586571,0 0.8897607,0.0573 1.2928234,0.17196 0.4030627,0.11119 0.7592598,0.28345 1.0685054,0.51626 0.3092467,0.22933 0.5504797,0.52104 0.7242148,0.87545 0.1772086,0.35442 0.2657626,0.77474 0.2657626,1.2612 0,0.38916 -0.09017,0.75416 -0.2708526,1.09468 -0.1772091,0.34052 -0.4220371,0.63942 -0.7347578,0.89655 -0.3127206,0.25712 -0.6741267,0.45866 -1.0841394,0.6046 -0.4100117,0.14941 -0.8495533,0.22395 -1.318635,0.22395 -0.4343361,0 -0.8530418,-0.0469 -1.2561045,-0.1407 -0.4030626,-0.0938 -0.7644687,-0.23967 -1.0841384,-0.43772 -0.3161956,-0.20154 -0.5682117,-0.46235 -0.7558437,-0.78202 -0.1841576,-0.32315 -0.2763067,-0.71383 -0.2763067,-1.17249 0,-0.50383 0.08855,-0.94858 0.2657627,-1.33427 0.177209,-0.38917 0.4224001,-0.71572 0.7351207,-0.9798 0.3161957,-0.26408 0.6808318,-0.46238 1.0943194,-0.59442 0.4134867,-0.13552 0.8582374,-0.20323 1.3342691,-0.20323 z m 7.4322835,0 c 0.458658,0 0.889761,0.0573 1.292824,0.17196 0.403064,0.11119 0.759261,0.28345 1.068507,0.51626 0.309248,0.22933 0.550482,0.52104 0.724216,0.87545 0.177209,0.35442 0.266127,0.77474 0.266127,1.2612 0,0.38916 -0.09053,0.75416 -0.271217,1.09468 -0.177209,0.34052 -0.422036,0.63942 -0.734758,0.89655 -0.312722,0.25712 -0.674128,0.45866 -1.084141,0.6046 -0.410012,0.14941 -0.849555,0.22395 -1.318637,0.22395 -0.434336,0 -0.853042,-0.0469 -1.256106,-0.1407 -0.403062,-0.0938 -0.764469,-0.23967 -1.08414,-0.43772 -0.316196,-0.20154 -0.568212,-0.46235 -0.755844,-0.78202 -0.184158,-0.32315 -0.2763066,-0.71383 -0.2763066,-1.17249 0,-0.50383 0.08855,-0.94858 0.2657636,-1.33427 0.177209,-0.38917 0.4224,-0.71572 0.735121,-0.9798 0.316196,-0.26408 0.680833,-0.46238 1.09432,-0.59442 0.413488,-0.13552 0.858239,-0.20323 1.334271,-0.20323 z m -7.5831611,1.60003 c -0.2050061,0 -0.3945121,0.0417 -0.5682468,0.12507 -0.173734,0.0799 -0.312764,0.2017 -0.4170036,0.36501 -0.1042401,0.15984 -0.1563321,0.35976 -0.1563321,0.59951 0,0.20501 0.04527,0.38374 0.1356091,0.53662 0.09034,0.14941 0.2189536,0.26599 0.3857376,0.34938 0.1702601,0.0799 0.3717987,0.11962 0.6046027,0.11962 0.2189037,0 0.4044527,-0.0313 0.5573388,-0.0938 0.1528856,-0.066 0.2782676,-0.15458 0.3755586,-0.26577 0.100766,-0.11119 0.1736931,-0.23261 0.2188641,-0.36465 0.04864,-0.13204 0.07308,-0.26586 0.07308,-0.40137 0,-0.17374 -0.03485,-0.32157 -0.1043417,-0.44318 -0.06949,-0.12509 -0.163258,-0.22568 -0.281397,-0.30212 -0.114664,-0.0765 -0.243276,-0.13213 -0.3857381,-0.16688 -0.142463,-0.0382 -0.288317,-0.0574 -0.4377276,-0.0574 z m 7.4322831,0 c -0.205007,0 -0.394513,0.0417 -0.568247,0.12507 -0.173734,0.0799 -0.312765,0.2017 -0.417005,0.36501 -0.10424,0.15984 -0.156331,0.35976 -0.156331,0.59951 0,0.20501 0.04526,0.38374 0.135608,0.53662 0.09034,0.14941 0.218954,0.26599 0.385739,0.34938 0.170259,0.0799 0.371799,0.11962 0.604603,0.11962 0.218904,0 0.404817,-0.0313 0.557703,-0.0938 0.152886,-0.066 0.277904,-0.15458 0.375195,-0.26577 0.100766,-0.11119 0.173694,-0.23261 0.218864,-0.36465 0.04864,-0.13204 0.07308,-0.26586 0.07308,-0.40137 0,-0.17374 -0.03485,-0.32157 -0.104342,-0.44318 -0.06949,-0.12509 -0.163257,-0.22568 -0.281396,-0.30212 -0.114665,-0.0765 -0.243277,-0.13213 -0.385739,-0.16688 -0.142462,-0.0382 -0.288317,-0.0574 -0.437728,-0.0574 z" /></g></svg>
