<?xml version="1.0" encoding="UTF-8" standalone="no"?>
<!-- Created with Inkscape (http://www.inkscape.org/) -->

<svg
   width="100mm"
   height="100mm"
   viewBox="0 0 100 100"
   version="1.1"
   id="svg1"
   sodipodi:docname="smartcook_logo.svg"
   xml:space="preserve"
   inkscape:version="1.3 (0e150ed6c4, 2023-07-21)"
   inkscape:export-filename="smartcook_logo.pdf"
   inkscape:export-xdpi="300"
   inkscape:export-ydpi="300"
   xmlns:inkscape="http://www.inkscape.org/namespaces/inkscape"
   xmlns:sodipodi="http://sodipodi.sourceforge.net/DTD/sodipodi-0.dtd"
   xmlns="http://www.w3.org/2000/svg"
   xmlns:svg="http://www.w3.org/2000/svg"><sodipodi:namedview
     id="namedview1"
     pagecolor="#ffffff"
     bordercolor="#000000"
     borderopacity="0.25"
     inkscape:showpageshadow="2"
     inkscape:pageopacity="0.0"
     inkscape:pagecheckerboard="0"
     inkscape:deskcolor="#d1d1d1"
     inkscape:document-units="mm"
     inkscape:zoom="1"
     inkscape:cx="58.5"
     inkscape:cy="315.5"
     inkscape:window-width="1799"
     inkscape:window-height="1183"
     inkscape:window-x="185"
     inkscape:window-y="301"
     inkscape:window-maximized="0"
     inkscape:current-layer="g57"
     showguides="false" /><defs
     id="defs1" /><g
     inkscape:label="cookie"
     inkscape:groupmode="layer"
     id="g57"
     transform="translate(445.398,-7.8537576)"
     style="display:inline"><path
       id="path1"
       style="display:inline;opacity:1;fill:#483e37;stroke-width:4.5;stroke-linecap:round;stroke-linejoin:round;stroke:none;stroke-opacity:1;stroke-dasharray:none"
       d="m -395.07043,13.007307 c -1.51529,-0.01424 -3.04601,0.04811 -4.58748,0.189956 -24.66339,2.269481 -42.81796,24.10263 -40.5485,48.766002 2.26949,24.663035 24.1029,42.816375 48.76602,40.547405 1.21995,-0.14959 3.01702,-0.0219 3.85621,-1.0574 1.20604,-1.487903 -0.11007,-3.874436 0.34038,-5.736001 0.19612,-0.810392 0.49123,-1.634809 1.00906,-2.288264 0.68357,-0.862619 1.96118,-1.1194 2.63635,-1.988521 1.39309,-1.793316 1.34974,-4.408563 2.62863,-6.285022 0.53559,-0.78583 1.25109,-1.466971 2.04779,-1.986311 0.88063,-0.573989 2.02894,-0.630657 2.92293,-1.183632 1.64226,-1.015837 2.58533,-3.034997 4.34373,-3.833172 1.98149,-0.899378 4.44872,-0.04483 6.47386,-0.841074 1.01245,-0.398078 1.66005,-1.458834 2.6561,-1.896263 0.92288,-0.405301 1.95081,-0.586907 2.95804,-0.623666 1.72379,-0.06289 3.92653,1.930812 5.12881,0.693933 5.05249,-5.19775 4.19007,-14.310582 3.5466,-21.739533 -2.12727,-23.122244 -21.44927,-40.523636 -44.17853,-40.738441 z m 35.10018,64.072301 c -0.67836,-7.43e-4 -1.37064,0.299424 -1.91607,0.725784 -1.1634,0.90947 -1.5783,3.023332 -0.28216,3.981375 1.70949,1.262483 2.26123,0.828177 3.42469,-0.08116 1.16356,-0.909555 1.58832,-1.55891 0.78838,-3.212777 -0.49598,-1.025506 -1.24605,-1.412322 -2.01484,-1.41313 z m -8.00561,2.32668 c -0.44163,-0.0011 -0.89655,0.06566 -1.33298,0.19548 -1.39813,0.41497 -1.69361,0.996098 -1.36925,2.35086 0.32432,1.354719 2.05445,3.094087 3.45107,2.679117 1.39634,-0.414949 2.37104,-3.052144 1.60748,-4.181211 -0.48045,-0.710443 -1.38479,-1.041782 -2.35632,-1.044204 z m -6.34214,4.036279 c -0.60629,0.002 -1.20018,0.104753 -1.71508,0.323923 -3.00771,1.281011 -4.51298,2.170743 -4.29981,4.547971 0.21296,2.377143 2.48327,4.195405 5.0706,4.060438 2.58737,-0.134922 3.9434,-3.525863 4.80712,-5.941339 0.61938,-1.73242 -1.69753,-2.998217 -3.86283,-2.990993 z m 8.68747,2.988784 c -0.26536,0.0042 -0.56287,0.04016 -0.88829,0.09987 -1.90091,0.348741 -2.88621,0.679888 -3.0931,2.205928 -0.20674,1.525977 0.84173,3.012518 2.34317,3.320377 1.50143,0.307753 3.01317,-2.103811 3.07224,-3.760675 0.0518,-1.449079 -0.48632,-1.877436 -1.43402,-1.865558 z m -15.51488,7.412688 c -0.40996,0.0042 -0.89046,0.06268 -1.45049,0.151497 -1.28236,0.203554 -3.46352,0.314914 -3.23914,2.460626 0.2245,2.14569 1.17624,3.51456 3.15348,3.754128 3.37323,0.40858 3.749,-2.150873 3.52462,-4.296543 -0.16849,-1.609141 -0.75872,-2.083053 -1.98847,-2.069751 z m 6.75604,0.177844 c -0.6757,-0.01062 -1.45261,0.168708 -2.16637,0.468855 -0.96883,0.40664 -0.63874,2.229216 -0.0191,3.133756 0.61906,0.904584 1.80141,1.095007 2.64073,0.424914 l 0.002,-0.0011 c 0.83917,-0.670114 1.72255,-2.461944 1.10351,-3.366506 -0.30952,-0.452154 -0.88456,-0.650226 -1.56029,-0.659936 z"
       inkscape:label="shape"
       transform="translate(-4.1666668e-6)" /><text
       xml:space="preserve"
       style="font-weight:600;font-size:20.9355px;line-height:0.9;font-family:'Crimson Text';-inkscape-font-specification:'Crimson Text Semi-Bold';text-align:center;letter-spacing:0px;word-spacing:0px;text-anchor:middle;display:inline;fill:#ffffff;fill-opacity:1;stroke:none;stroke-width:8.47777;stroke-linecap:round;stroke-linejoin:bevel"
       x="-429.65344"
       y="53.261471"
       id="text57"
       inkscape:label="text"><tspan
         sodipodi:role="line"
         id="tspan56"
         style="font-style:normal;font-variant:normal;font-weight:bold;font-stretch:normal;font-size:20.9355px;line-height:0.9;font-family:Gluten;-inkscape-font-specification:'Gluten Bold';text-align:start;letter-spacing:0px;text-anchor:start;fill:#ffffff;stroke-width:8.47777"
         x="-429.65344"
         y="53.261471">Smart</tspan><tspan
         sodipodi:role="line"
         style="font-style:normal;font-variant:normal;font-weight:bold;font-stretch:normal;font-size:20.9355px;line-height:0.9;font-family:Gluten;-inkscape-font-specification:'Gluten Bold';text-align:start;letter-spacing:0px;text-anchor:start;fill:#ffffff;stroke-width:8.47777"
         x="-429.65344"
         y="72.115982"
         id="tspan57">Cook</tspan></text></g></svg>
