<?xml version="1.0" encoding="UTF-8"?>
<svg width="100mm" height="100mm" version="1.1" viewBox="0 0 100 100" xml:space="preserve"
    xmlns="http://www.w3.org/2000/svg"><g transform="translate(445.4 -7.8538)"><path d="m-395.07 13.007c-1.5153-0.01424-3.046 0.04811-4.5875 0.18996-24.663 2.2695-42.818 24.103-40.548 48.766 2.2695 24.663 24.103 42.816 48.766 40.547 1.22-0.14959 3.017-0.0219 3.8562-1.0574 1.206-1.4879-0.11007-3.8744 0.34038-5.736 0.19612-0.81039 0.49123-1.6348 1.0091-2.2883 0.68357-0.86262 1.9612-1.1194 2.6364-1.9885 1.3931-1.7933 1.3497-4.4086 2.6286-6.285 0.53559-0.78583 1.2511-1.467 2.0478-1.9863 0.88063-0.57399 2.0289-0.63066 2.9229-1.1836 1.6423-1.0158 2.5853-3.035 4.3437-3.8332 1.9815-0.89938 4.4487-0.04483 6.4739-0.84107 1.0124-0.39808 1.66-1.4588 2.6561-1.8963 0.92288-0.4053 1.9508-0.58691 2.958-0.62367 1.7238-0.06289 3.9265 1.9308 5.1288 0.69393 5.0525-5.1978 4.1901-14.311 3.5466-21.74-2.1273-23.122-21.449-40.524-44.179-40.738zm35.1 64.072c-0.67836-7.43e-4 -1.3706 0.29942-1.9161 0.72578-1.1634 0.90947-1.5783 3.0233-0.28216 3.9814 1.7095 1.2625 2.2612 0.82818 3.4247-0.08116 1.1636-0.90956 1.5883-1.5589 0.78838-3.2128-0.49598-1.0255-1.246-1.4123-2.0148-1.4131zm-8.0056 2.3267c-0.44163-0.0011-0.89655 0.06566-1.333 0.19548-1.3981 0.41497-1.6936 0.9961-1.3692 2.3509 0.32432 1.3547 2.0544 3.0941 3.4511 2.6791 1.3963-0.41495 2.371-3.0521 1.6075-4.1812-0.48045-0.71044-1.3848-1.0418-2.3563-1.0442zm-6.3421 4.0363c-0.60629 2e-3 -1.2002 0.10475-1.7151 0.32392-3.0077 1.281-4.513 2.1707-4.2998 4.548 0.21296 2.3771 2.4833 4.1954 5.0706 4.0604 2.5874-0.13492 3.9434-3.5259 4.8071-5.9413 0.61938-1.7324-1.6975-2.9982-3.8628-2.991zm8.6875 2.9888c-0.26536 0.0042-0.56287 0.04016-0.88829 0.09987-1.9009 0.34874-2.8862 0.67989-3.0931 2.2059-0.20674 1.526 0.84173 3.0125 2.3432 3.3204 1.5014 0.30775 3.0132-2.1038 3.0722-3.7607 0.0518-1.4491-0.48632-1.8774-1.434-1.8656zm-15.515 7.4127c-0.40996 0.0042-0.89046 0.06268-1.4505 0.1515-1.2824 0.20355-3.4635 0.31491-3.2391 2.4606 0.2245 2.1457 1.1762 3.5146 3.1535 3.7541 3.3732 0.40858 3.749-2.1509 3.5246-4.2965-0.16849-1.6091-0.75872-2.0831-1.9885-2.0698zm6.756 0.17784c-0.6757-0.01062-1.4526 0.16871-2.1664 0.46886-0.96883 0.40664-0.63874 2.2292-0.0191 3.1338 0.61906 0.90458 1.8014 1.095 2.6407 0.42491l2e-3 -0.0011c0.83917-0.67011 1.7226-2.4619 1.1035-3.3665-0.30952-0.45215-0.88456-0.65023-1.5603-0.65994z" stroke="#fff" stroke-linecap="round" stroke-linejoin="round" stroke-width="7"/><path transform="translate(-4.1667e-6)" d="m-395.07 13.007c-1.5153-0.01424-3.046 0.04811-4.5875 0.18996-24.663 2.2695-42.818 24.103-40.548 48.766 2.2695 24.663 24.103 42.816 48.766 40.547 1.22-0.14959 3.017-0.0219 3.8562-1.0574 1.206-1.4879-0.11007-3.8744 0.34038-5.736 0.19612-0.81039 0.49123-1.6348 1.0091-2.2883 0.68357-0.86262 1.9612-1.1194 2.6364-1.9885 1.3931-1.7933 1.3497-4.4086 2.6286-6.285 0.53559-0.78583 1.2511-1.467 2.0478-1.9863 0.88063-0.57399 2.0289-0.63066 2.9229-1.1836 1.6423-1.0158 2.5853-3.035 4.3437-3.8332 1.9815-0.89938 4.4487-0.04483 6.4739-0.84107 1.0124-0.39808 1.66-1.4588 2.6561-1.8963 0.92288-0.4053 1.9508-0.58691 2.958-0.62367 1.7238-0.06289 3.9265 1.9308 5.1288 0.69393 5.0525-5.1978 4.1901-14.311 3.5466-21.74-2.1273-23.122-21.449-40.524-44.179-40.738zm35.1 64.072c-0.67836-7.43e-4 -1.3706 0.29942-1.9161 0.72578-1.1634 0.90947-1.5783 3.0233-0.28216 3.9814 1.7095 1.2625 2.2612 0.82818 3.4247-0.08116 1.1636-0.90956 1.5883-1.5589 0.78838-3.2128-0.49598-1.0255-1.246-1.4123-2.0148-1.4131zm-8.0056 2.3267c-0.44163-0.0011-0.89655 0.06566-1.333 0.19548-1.3981 0.41497-1.6936 0.9961-1.3692 2.3509 0.32432 1.3547 2.0544 3.0941 3.4511 2.6791 1.3963-0.41495 2.371-3.0521 1.6075-4.1812-0.48045-0.71044-1.3848-1.0418-2.3563-1.0442zm-6.3421 4.0363c-0.60629 2e-3 -1.2002 0.10475-1.7151 0.32392-3.0077 1.281-4.513 2.1707-4.2998 4.548 0.21296 2.3771 2.4833 4.1954 5.0706 4.0604 2.5874-0.13492 3.9434-3.5259 4.8071-5.9413 0.61938-1.7324-1.6975-2.9982-3.8628-2.991zm8.6875 2.9888c-0.26536 0.0042-0.56287 0.04016-0.88829 0.09987-1.9009 0.34874-2.8862 0.67989-3.0931 2.2059-0.20674 1.526 0.84173 3.0125 2.3432 3.3204 1.5014 0.30775 3.0132-2.1038 3.0722-3.7607 0.0518-1.4491-0.48632-1.8774-1.434-1.8656zm-15.515 7.4127c-0.40996 0.0042-0.89046 0.06268-1.4505 0.1515-1.2824 0.20355-3.4635 0.31491-3.2391 2.4606 0.2245 2.1457 1.1762 3.5146 3.1535 3.7541 3.3732 0.40858 3.749-2.1509 3.5246-4.2965-0.16849-1.6091-0.75872-2.0831-1.9885-2.0698zm6.756 0.17784c-0.6757-0.01062-1.4526 0.16871-2.1664 0.46886-0.96883 0.40664-0.63874 2.2292-0.0191 3.1338 0.61906 0.90458 1.8014 1.095 2.6407 0.42491l2e-3 -0.0011c0.83917-0.67011 1.7226-2.4619 1.1035-3.3665-0.30952-0.45215-0.88456-0.65023-1.5603-0.65994z"/><text x="-429.65344" y="53.261471" fill="#ffffff" font-family="Gluten" font-size="20.936px" font-weight="bold" letter-spacing="0px" stroke-linecap="round" stroke-linejoin="bevel" stroke-width="8.4778" text-align="center" word-spacing="0px" style="line-height:0.9" xml:space="preserve"><tspan x="-429.65344" y="53.261471" text-align="start" style="line-height:0.9">Smart</tspan><tspan x="-429.65344" y="72.115982" text-align="start" style="line-height:0.9">Cook</tspan></text></g></svg>