<?xml version="1.0" standalone="no"?>
<!DOCTYPE svg PUBLIC "-//W3C//DTD SVG 20010904//EN"
 "http://www.w3.org/TR/2001/REC-SVG-20010904/DTD/svg10.dtd">
<svg version="1.0" xmlns="http://www.w3.org/2000/svg"
 width="900.000000pt" height="900.000000pt" viewBox="0 0 900.000000 900.000000"
 preserveAspectRatio="xMidYMid meet">
<metadata>
Created by potrace 1.14, written by Peter Selinger 2001-2017
</metadata>
<g transform="translate(0.000000,900.000000) scale(0.100000,-0.100000)"
fill="#000000" stroke="none">
<path d="M4270 8530 c-1290 -76 -2430 -728 -3147 -1800 -352 -526 -567 -1120
-649 -1790 -25 -202 -25 -664 0 -875 96 -818 405 -1541 922 -2160 801 -957
2043 -1502 3272 -1435 341 18 432 32 493 73 79 53 99 123 81 287 -19 168 -16
244 13 330 38 111 66 146 180 221 152 100 175 139 274 452 48 153 87 221 178
308 74 71 128 103 238 139 118 39 145 57 290 205 77 78 160 154 185 168 67 39
151 57 265 57 55 1 147 5 203 10 125 11 182 35 267 109 33 29 78 64 101 77 59
35 186 65 279 66 71 1 92 -4 190 -41 124 -48 199 -60 245 -41 65 27 200 222
266 384 138 338 164 771 93 1540 -57 624 -214 1144 -502 1661 -74 134 -264
415 -364 539 -682 851 -1671 1392 -2743 1500 -190 19 -461 26 -630 16z m-2054
-2451 c195 -27 280 -106 228 -214 -19 -40 -45 -59 -104 -75 -35 -9 -55 -8
-112 6 -119 29 -219 3 -226 -59 -7 -57 37 -93 189 -154 116 -46 230 -122 275
-182 121 -164 61 -365 -138 -456 -104 -48 -201 -66 -373 -72 -194 -6 -316 11
-413 58 -77 38 -102 73 -102 145 0 54 21 93 61 115 41 22 123 28 190 14 123
-27 243 -13 279 32 54 68 6 119 -175 188 -244 92 -345 219 -305 385 45 188
389 316 726 269z m4930 -63 c38 -25 54 -58 70 -142 8 -44 17 -89 20 -101 7
-35 42 -51 147 -67 98 -15 159 -40 171 -72 14 -37 6 -111 -15 -138 -29 -37
-57 -46 -167 -55 -60 -5 -99 -13 -108 -23 -12 -11 -15 -42 -15 -137 0 -67 5
-130 11 -141 18 -33 70 -35 128 -6 59 30 79 32 110 10 33 -23 31 -102 -4 -144
-51 -60 -186 -110 -299 -110 -127 0 -243 48 -287 117 -21 35 -23 51 -28 221
-6 220 -4 216 -128 227 -149 13 -184 38 -190 138 -4 56 -2 65 22 88 27 27 53
36 188 64 42 9 81 22 87 29 7 8 18 51 26 96 17 94 47 144 98 159 43 14 133 6
163 -13z m-875 -194 c82 -23 151 -62 180 -103 47 -67 30 -173 -34 -206 -35
-18 -129 -20 -197 -4 -67 16 -147 13 -187 -6 -75 -35 -93 -110 -69 -277 37
-256 7 -334 -134 -344 -153 -11 -240 68 -289 261 -94 369 57 635 396 697 72
13 258 3 334 -18z m-1262 -37 c139 -34 235 -117 271 -232 23 -74 27 -197 9
-287 -14 -67 -10 -79 57 -165 77 -99 72 -192 -11 -227 -58 -24 -89 -18 -140
26 -25 22 -53 40 -62 40 -8 0 -52 -22 -97 -49 -44 -27 -103 -57 -131 -66 -112
-38 -307 -36 -429 5 -154 51 -234 189 -192 333 42 143 221 217 529 217 139 0
150 5 131 58 -26 71 -140 91 -322 53 -126 -26 -213 -27 -269 -2 -52 24 -67 51
-61 113 9 89 98 154 258 189 104 23 355 20 459 -6z m-1883 -30 c80 -24 118
-64 175 -181 76 -160 112 -163 206 -19 96 147 171 195 308 195 178 0 275 -91
315 -297 17 -87 8 -360 -14 -431 -33 -102 -113 -154 -207 -133 -87 20 -125 65
-133 158 -22 250 -36 303 -80 303 -33 0 -60 -34 -107 -135 -22 -49 -50 -103
-62 -119 -42 -59 -160 -84 -234 -49 -45 21 -78 72 -107 167 -30 95 -49 126
-80 126 -51 0 -102 -103 -127 -258 -12 -78 -37 -139 -69 -167 -33 -30 -163
-34 -206 -7 -66 42 -94 163 -75 331 15 139 33 209 77 297 89 178 260 267 420
219z m2649 -1375 c48 -45 56 -138 34 -396 -12 -141 -9 -194 13 -194 6 0 64 51
129 114 100 98 125 117 170 130 92 28 168 14 203 -35 22 -32 21 -106 -4 -146
-10 -17 -66 -71 -125 -119 -58 -48 -105 -94 -105 -103 0 -10 43 -43 110 -84
181 -113 220 -151 220 -218 0 -75 -73 -139 -158 -139 -81 0 -120 26 -325 218
-55 51 -110 95 -124 98 -37 10 -56 -17 -91 -131 -37 -119 -62 -158 -120 -186
-34 -17 -54 -20 -93 -16 -157 19 -181 165 -108 650 53 359 118 524 224 573 44
21 120 12 150 -16z m-3500 -65 c77 -21 151 -62 178 -99 17 -24 22 -45 22 -94
0 -59 -2 -66 -33 -93 -38 -34 -84 -38 -172 -14 -86 23 -180 20 -221 -8 -75
-51 -115 -154 -106 -278 6 -95 33 -157 82 -195 31 -23 50 -29 105 -32 58 -4
77 0 146 29 167 71 266 29 266 -110 0 -66 -15 -102 -64 -148 -80 -77 -221
-117 -413 -118 -158 0 -215 11 -322 61 -191 91 -283 261 -270 503 15 306 187
522 469 592 93 22 253 24 333 4z m1163 -150 c106 -21 234 -85 297 -149 134
-134 171 -359 89 -532 -62 -130 -226 -255 -394 -301 -96 -26 -288 -23 -404 5
-175 44 -308 144 -357 269 -31 82 -32 239 -2 338 76 242 292 382 596 384 54 1
133 -6 175 -14z m1387 -10 c105 -29 186 -74 251 -139 99 -100 140 -214 132
-369 -4 -73 -10 -97 -41 -159 -105 -214 -353 -341 -630 -323 -254 16 -433 108
-509 263 -29 58 -33 77 -36 167 -5 124 8 193 56 288 68 138 213 243 387 281
90 20 304 15 390 -9z"/>
<path d="M4715 5211 c-100 -24 -137 -102 -74 -155 26 -22 40 -26 92 -26 104 1
182 50 194 124 5 34 4 37 -30 51 -38 15 -129 18 -182 6z"/>
<path d="M3132 3869 c-129 -65 -136 -261 -13 -328 34 -19 59 -24 111 -24 130
0 210 66 218 183 9 117 -57 180 -197 187 -64 4 -83 1 -119 -18z"/>
<path d="M4485 3871 c-106 -48 -146 -184 -82 -279 69 -102 273 -101 351 1 83
109 39 251 -89 286 -59 16 -135 13 -180 -8z"/>
<path d="M7607 2755 c-112 -41 -185 -142 -187 -255 0 -70 34 -127 103 -175 53
-36 65 -40 121 -40 61 0 65 2 139 58 92 71 122 115 121 177 -1 50 -31 126 -71
178 -48 64 -142 87 -226 57z"/>
<path d="M6838 2537 c-78 -27 -105 -48 -117 -92 -20 -75 19 -183 96 -266 113
-120 243 -121 322 -3 64 97 81 235 36 296 -59 80 -210 110 -337 65z"/>
<path d="M6315 2188 c-80 -14 -306 -129 -366 -184 -60 -57 -78 -88 -89 -157
-36 -231 162 -446 415 -451 88 -1 125 10 193 58 83 58 173 203 248 398 43 112
44 161 5 216 -38 51 -149 107 -241 122 -75 11 -96 11 -165 -2z"/>
<path d="M7057 1910 c-188 -40 -247 -103 -234 -251 8 -94 65 -175 152 -215 87
-41 141 -28 216 52 128 138 158 369 54 419 -42 19 -78 18 -188 -5z"/>
<path d="M5635 1245 c-112 -18 -164 -33 -206 -60 -66 -43 -84 -122 -54 -238
47 -179 148 -259 329 -259 151 0 232 72 256 230 13 84 -1 220 -28 266 -10 17
-33 41 -52 53 -39 27 -112 29 -245 8z"/>
<path d="M6242 1219 c-95 -30 -120 -90 -87 -205 41 -141 150 -202 257 -142 77
43 149 190 134 272 -6 33 -33 64 -73 85 -34 18 -161 12 -231 -10z"/>
</g>
</svg>
